<svg width="140" height="32" viewBox="0 0 140 32" fill="none" xmlns="http://www.w3.org/2000/svg">
<g clip-path="url(#clip0_1203_2509)">
<path d="M51.9316 11.6496V4.8667H53.1941L55.0222 9.21638H55.4154L57.2436 4.8667H58.506V11.6496H57.7219V5.83642V5.73919H57.7058L55.9282 10.0019H54.491L52.725 5.73919H52.7066V5.83642V11.6496H51.9316Z" fill="#333333"/>
<path d="M60.5755 11.0031C60.3306 10.7812 60.1378 10.5163 60.0091 10.2244C59.8804 9.93245 59.8184 9.61971 59.8269 9.30525C59.8255 8.99087 59.8922 8.67933 60.023 8.3884C60.1539 8.09747 60.3464 7.83285 60.5895 7.60965C60.8327 7.38646 61.1218 7.20905 61.4403 7.08757C61.7587 6.96609 62.1004 6.90291 62.4457 6.90163C62.7909 6.90036 63.1331 6.96102 63.4527 7.08014C63.7722 7.19927 64.0629 7.37454 64.308 7.59593C64.5532 7.81733 64.748 8.08051 64.8814 8.37047C65.0149 8.66043 65.0843 8.97147 65.0857 9.28584C65.0726 9.75474 64.9104 10.2101 64.6189 10.5968C64.3273 10.9835 63.9189 11.285 63.443 11.4647C62.9671 11.6443 62.4442 11.6945 61.9377 11.6092C61.4311 11.5238 60.9626 11.3065 60.5888 10.9837L60.5755 11.0031ZM61.1483 8.07312C60.9784 8.23406 60.8455 8.42418 60.7572 8.6324C60.669 8.84061 60.6271 9.06275 60.6341 9.28584C60.6281 9.50882 60.6705 9.7307 60.7587 9.93878C60.8469 10.1469 60.9793 10.3371 61.1483 10.4986C61.4987 10.8035 61.9649 10.9737 62.4496 10.9737C62.9344 10.9737 63.4006 10.8035 63.751 10.4986C63.9211 10.3378 64.0542 10.1477 64.1425 9.93944C64.2308 9.73118 64.2725 9.50897 64.2652 9.28584C64.2731 9.06285 64.232 8.84066 64.1441 8.63238C64.0563 8.4241 63.9235 8.23394 63.7537 8.07312C63.4055 7.76422 62.9385 7.59134 62.4523 7.59134C61.9661 7.59134 61.4992 7.76422 61.151 8.07312H61.1483Z" fill="#333333"/>
<path d="M66.4016 10.9819C66.1794 10.7556 66.0059 10.4874 65.8915 10.1936C65.7771 9.89969 65.7242 9.58614 65.736 9.27169C65.7272 8.96009 65.7821 8.64992 65.8972 8.3595C66.0124 8.06908 66.1856 7.80429 66.4065 7.58078C66.6373 7.35499 66.9129 7.17832 67.2161 7.06176C67.5193 6.9452 67.8436 6.89124 68.1689 6.90325C68.4942 6.91526 68.8135 6.99298 69.107 7.13156C69.4004 7.27015 69.6618 7.46664 69.8747 7.70881C70.0656 7.94456 70.2082 8.21444 70.2947 8.50354H69.5578C69.4851 8.33397 69.381 8.17916 69.2508 8.04699C69.0974 7.89362 68.913 7.77355 68.7095 7.6945C68.506 7.61546 68.288 7.57919 68.0694 7.58803C67.8568 7.58362 67.6457 7.62451 67.4506 7.7079C67.2556 7.7913 67.0812 7.91521 66.9395 8.07115C66.6312 8.39643 66.4638 8.82706 66.4728 9.27169C66.4597 9.71917 66.6275 10.1535 66.9395 10.4795C67.0803 10.6327 67.2524 10.7549 67.4446 10.8382C67.6368 10.9214 67.8447 10.9638 68.0546 10.9626C68.2844 10.9737 68.5139 10.9344 68.7263 10.8475C68.9387 10.7606 69.1288 10.6283 69.2827 10.4602C69.4212 10.315 69.529 10.1442 69.5996 9.95772H70.3364C70.2091 10.4527 69.9138 10.8901 69.4993 11.1976C69.0848 11.5051 68.576 11.6642 68.0571 11.6486C67.7491 11.6571 67.4428 11.6021 67.1577 11.4873C66.8726 11.3725 66.6151 11.2004 66.4016 10.9819Z" fill="#333333"/>
<path d="M70.9961 11.6472V6.90161H71.8054V8.80083H72.8277L74.4625 6.90161H75.4444L73.5561 9.13157L75.5982 11.6371H74.5758L72.8358 9.51492H71.8135V11.6497L70.9961 11.6472Z" fill="#333333"/>
<path d="M76.2529 10.9929C76.0384 10.7748 75.8698 10.5143 75.7573 10.2274C75.6448 9.94053 75.5909 9.63323 75.5988 9.32434C75.589 9.00987 75.6412 8.69659 75.7524 8.40311C75.8635 8.10964 76.0314 7.84196 76.2459 7.61596C76.4604 7.38997 76.7173 7.21028 77.0012 7.08756C77.2851 6.96485 77.5903 6.90161 77.8987 6.90161C78.207 6.90161 78.5122 6.96485 78.7962 7.08756C79.0801 7.21028 79.3369 7.38997 79.5515 7.61596C79.766 7.84196 79.9338 8.10964 80.045 8.40311C80.1562 8.69659 80.2084 9.00987 80.1986 9.32434C80.1875 9.78563 80.0454 10.2337 79.7897 10.6143C79.5339 10.9948 79.1753 11.2914 78.7576 11.468C78.3398 11.6447 77.8808 11.6939 77.4362 11.6095C76.9916 11.5252 76.5805 11.311 76.2529 10.9929ZM76.7575 8.11343C76.6081 8.27128 76.4913 8.45808 76.4139 8.66278C76.3364 8.86748 76.3 9.08595 76.3067 9.30527C76.3002 9.52455 76.3368 9.74294 76.4142 9.94761C76.4916 10.1523 76.6084 10.3391 76.7575 10.4971C77.0648 10.7968 77.4736 10.9641 77.8987 10.9641C78.3238 10.9641 78.7325 10.7968 79.0399 10.4971C79.1881 10.3384 79.3041 10.1515 79.3815 9.94696C79.4589 9.74246 79.496 9.52441 79.4907 9.30527C79.4969 9.08601 79.4602 8.8677 79.3828 8.66307C79.3054 8.45844 79.1888 8.27159 79.0399 8.11343C78.7345 7.80984 78.325 7.63995 77.8987 7.63995C77.4724 7.63995 77.0629 7.80984 76.7575 8.11343Z" fill="#333333"/>
<path d="M81.5156 11.649V6.9039H83.8435C84.2213 6.88333 84.5935 7.00189 84.8896 7.23711C85.0122 7.34256 85.1098 7.47392 85.1753 7.62168C85.2408 7.76943 85.2726 7.92989 85.2684 8.09143C85.2697 8.23762 85.2477 8.38309 85.2032 8.52235C85.1683 8.6327 85.113 8.73553 85.0401 8.8255C84.9812 8.89483 84.9128 8.95555 84.8369 9.00588C84.781 9.04519 84.7203 9.07719 84.6563 9.10109C84.624 9.11298 84.5903 9.12056 84.556 9.12364C84.5945 9.12701 84.6325 9.13543 84.6688 9.14869C84.7473 9.17329 84.8224 9.20781 84.8921 9.25141C84.9863 9.30752 85.0745 9.37299 85.1555 9.44683C85.2491 9.54085 85.3217 9.65354 85.3687 9.77753C85.4303 9.93209 85.461 10.0972 85.459 10.2636C85.4673 10.4516 85.4335 10.639 85.3602 10.8124C85.2868 10.9857 85.1758 11.1406 85.0351 11.2657C84.7032 11.5366 84.2814 11.6726 83.8536 11.6465L81.5156 11.649ZM82.2682 8.85055H83.7884C84.2625 8.85055 84.5008 8.64512 84.5008 8.23173C84.5008 7.81835 84.2625 7.61542 83.7884 7.61542H82.2682V8.85055ZM82.2682 10.9375H83.836C84.0644 10.9527 84.2907 10.8851 84.4732 10.7471C84.5461 10.6819 84.6035 10.6013 84.6413 10.5112C84.6791 10.421 84.6962 10.3236 84.6914 10.226C84.6964 10.128 84.6794 10.0301 84.6416 9.93953C84.6038 9.84894 84.5463 9.76791 84.4732 9.70237C84.2903 9.56525 84.0641 9.49854 83.836 9.51447H82.2682V10.9375Z" fill="#333333"/>
<path d="M86.7865 10.9565C86.5667 10.733 86.3945 10.4686 86.2801 10.1786C86.1656 9.88867 86.1112 9.57912 86.1201 9.26819C86.111 8.95721 86.1652 8.64759 86.2797 8.35761C86.3941 8.06763 86.5665 7.80318 86.7865 7.5799C87.0169 7.35439 87.292 7.17795 87.5946 7.06155C87.8973 6.94514 88.221 6.89126 88.5457 6.90325C88.8703 6.91524 89.189 6.99284 89.482 7.13124C89.7749 7.26963 90.0358 7.46586 90.2484 7.70773C90.4389 7.94266 90.5804 8.21232 90.6649 8.50122H89.9299C89.8581 8.33151 89.7542 8.1768 89.6236 8.04538C89.4707 7.89201 89.2869 7.77196 89.0838 7.69302C88.8808 7.61408 88.6632 7.578 88.4452 7.58713C88.2331 7.58273 88.0226 7.62356 87.828 7.70682C87.6335 7.79008 87.4595 7.91381 87.3182 8.0695C87.0159 8.39927 86.8552 8.8315 86.8698 9.27542C86.8561 9.72187 87.0226 10.1555 87.3329 10.4813C87.4734 10.6342 87.6451 10.7562 87.8368 10.8393C88.0284 10.9224 88.2357 10.9648 88.4452 10.9637C88.6744 10.975 88.9033 10.9358 89.1152 10.8491C89.3271 10.7623 89.5167 10.6301 89.6702 10.462C89.81 10.3184 89.9176 10.1475 89.9862 9.96038H90.7212C90.6411 10.2697 90.4959 10.5589 90.2949 10.8093C90.074 11.0804 89.7922 11.2974 89.4716 11.443C89.151 11.5886 88.8005 11.659 88.4476 11.6487C88.1368 11.6551 87.8282 11.5967 87.5419 11.4774C87.2556 11.3581 86.9982 11.1806 86.7865 10.9565Z" fill="#333333"/>
<path d="M91.375 11.6472V6.90161H92.1862V8.80083H93.2083L94.8468 6.90161H95.8202L93.9275 9.13157L95.9771 11.6371H94.9523L93.2164 9.51492H92.1943V11.6497L91.375 11.6472Z" fill="#333333"/>
<path d="M96.6387 11.6497V6.90161H97.3486V10.4614V10.5567H97.3651L99.7764 6.90161H100.583V11.6497H99.8734V8.08988V7.99462H99.8545L97.4456 11.6497H96.6387Z" fill="#333333"/>
<path d="M101.896 11.6496V6.80359H102.607V10.4368V10.5341H102.623L105.034 6.80359H105.841V11.6496H105.131V8.01638V7.91915H105.112L102.702 11.6496H101.896ZM102.541 4.8667H103.206C103.203 4.94635 103.217 5.02559 103.247 5.09864C103.276 5.17168 103.321 5.23668 103.376 5.28887C103.521 5.40466 103.699 5.46091 103.878 5.44751C104.061 5.46389 104.243 5.40747 104.39 5.28887C104.445 5.23643 104.489 5.17133 104.518 5.0983C104.547 5.02527 104.561 4.94615 104.558 4.8667H105.23C105.233 5.03254 105.202 5.19704 105.139 5.34805C105.075 5.49906 104.981 5.63273 104.863 5.73919C104.584 5.97914 104.232 6.09938 103.876 6.07693C103.52 6.09875 103.17 5.97854 102.891 5.73919C102.776 5.63089 102.685 5.49643 102.625 5.34554C102.564 5.19465 102.535 5.0311 102.541 4.8667V4.8667Z" fill="#333333"/>
<path d="M51.9316 19.7886V15.0405H52.6424V18.6022V18.6975H52.6613L55.0708 15.0405H55.8763V19.7886H55.1655V16.2269V16.1316H55.1489L52.7395 19.7886H51.9316Z" fill="#333333"/>
<path d="M57.1875 19.7886V15.0405H57.9V16.9869H60.4197V15.0405H61.1321V19.7886H60.4197V17.6992H57.9071V19.7886H57.1875Z" fill="#333333"/>
<path d="M62.457 19.7886V15.0405H63.1699V16.9869H65.6888V15.0405H66.4017V19.7886H65.6888V17.6992H63.1699V19.7886H62.457Z" fill="#333333"/>
<path d="M68.3643 19.1318C68.1501 18.9135 67.9816 18.653 67.8692 18.3661C67.7568 18.0793 67.7026 17.7721 67.7102 17.4633C67.7003 17.1488 67.7525 16.8355 67.8637 16.542C67.9749 16.2486 68.1427 15.9809 68.3572 15.7549C68.5718 15.5289 68.8286 15.3492 69.1125 15.2265C69.3965 15.1038 69.7017 15.0405 70.01 15.0405C70.3184 15.0405 70.6236 15.1038 70.9075 15.2265C71.1914 15.3492 71.4483 15.5289 71.6628 15.7549C71.8773 15.9809 72.0452 16.2486 72.1563 16.542C72.2675 16.8355 72.3197 17.1488 72.3099 17.4633C72.2988 17.9245 72.1568 18.3726 71.901 18.7532C71.6452 19.1337 71.2867 19.4303 70.8689 19.607C70.4511 19.7836 69.9921 19.8328 69.5475 19.7484C69.1029 19.6641 68.6919 19.4499 68.3643 19.1318ZM68.8688 16.2523C68.7193 16.41 68.6023 16.5968 68.5248 16.8015C68.4474 17.0063 68.411 17.2248 68.418 17.4442C68.4112 17.6635 68.4476 17.882 68.525 18.0867C68.6024 18.2915 68.7194 18.4782 68.8688 18.636C69.1742 18.9396 69.5837 19.1095 70.01 19.1095C70.4363 19.1095 70.8458 18.9396 71.1512 18.636C71.3007 18.4782 71.4176 18.2915 71.495 18.0867C71.5725 17.882 71.6089 17.6635 71.602 17.4442C71.609 17.2248 71.5727 17.0063 71.4952 16.8015C71.4178 16.5968 71.3008 16.41 71.1512 16.2523C70.8458 15.9488 70.4363 15.7789 70.01 15.7789C69.5837 15.7789 69.1742 15.9488 68.8688 16.2523Z" fill="#333333"/>
<path d="M73.623 19.7886V15.0431H75.956C76.3347 15.0211 76.7083 15.1389 77.0054 15.374C77.1287 15.4793 77.2268 15.6107 77.2925 15.7586C77.3583 15.9065 77.39 16.0672 77.3854 16.2289C77.3869 16.3752 77.3648 16.5207 77.32 16.66C77.2608 16.8605 77.1301 17.0326 76.9525 17.1439C76.8965 17.1832 76.8356 17.2152 76.7713 17.2391C76.7393 17.2527 76.7054 17.2612 76.6707 17.2642C76.7099 17.2677 76.7487 17.2753 76.7864 17.2868C76.8654 17.3118 76.9408 17.3472 77.0104 17.392C77.1007 17.4477 77.185 17.5124 77.2621 17.5851C77.3562 17.6799 77.4291 17.7936 77.476 17.9185C77.538 18.0722 77.5688 18.2366 77.5666 18.4023C77.5743 18.5901 77.5404 18.7773 77.4673 18.9506C77.3943 19.1239 77.2838 19.279 77.1438 19.405C76.8094 19.6749 76.3855 19.81 75.956 19.7836L73.623 19.7886ZM74.378 16.9884H75.9006C76.3788 16.9884 76.6153 16.7829 76.6153 16.3718C76.6153 15.9606 76.3863 15.7626 75.9081 15.7626H74.3856L74.378 16.9884ZM74.378 19.0766H75.9484C76.1777 19.093 76.4051 19.0253 76.5876 18.8861C76.657 18.818 76.7121 18.7368 76.7497 18.6473C76.7874 18.5578 76.8067 18.4617 76.8067 18.3647C76.8067 18.2677 76.7874 18.1716 76.7497 18.0821C76.7121 17.9926 76.657 17.9114 76.5876 17.8433C76.4051 17.7041 76.1777 17.6364 75.9484 17.6528H74.378V19.0766Z" fill="#333333"/>
<path d="M78.879 19.1124C78.4465 18.654 78.2138 18.0453 78.2314 17.4181C78.2135 16.7909 78.4462 16.1821 78.879 15.7239C79.077 15.5057 79.3199 15.3319 79.5913 15.2142C79.8627 15.0964 80.1563 15.0375 80.4526 15.0414C80.7919 15.0316 81.1283 15.1074 81.43 15.2616C81.6601 15.3767 81.8607 15.5422 82.0164 15.7457L82.0995 15.8812V15.1212H82.8325V19.7029H82.0995V18.9623L82.0164 19.0906C81.8656 19.2899 81.6698 19.4515 81.4446 19.5625C81.1363 19.7208 80.7923 19.7983 80.4452 19.7876C80.1508 19.7913 79.8589 19.7331 79.5889 19.6166C79.3188 19.5002 79.0769 19.3283 78.879 19.1124ZM79.4287 16.1934C79.1266 16.524 78.9663 16.958 78.9816 17.4036C78.9665 17.8492 79.1269 18.2831 79.4287 18.6138C79.5741 18.7644 79.7487 18.8842 79.9421 18.9661C80.1355 19.048 80.3436 19.0903 80.554 19.0903C80.7643 19.0903 80.9725 19.048 81.1658 18.9661C81.3592 18.8842 81.5339 18.7644 81.6792 18.6138C81.9811 18.2831 82.1414 17.8492 82.1264 17.4036C82.1417 16.958 81.9813 16.524 81.6792 16.1934C81.5339 16.0428 81.3592 15.923 81.1658 15.8411C80.9725 15.7592 80.7643 15.7169 80.554 15.7169C80.3436 15.7169 80.1355 15.7592 79.9421 15.8411C79.7487 15.923 79.5741 16.0428 79.4287 16.1934Z" fill="#333333"/>
<path d="M84.1523 20.0045V15.0405H84.8986V19.2598H87.3489V15.0405H88.0952V19.2598H88.7544V21.1452H88.0081V20.0045H84.1523Z" fill="#333333"/>
<path d="M89.4062 19.7886V15.0405H90.1161V18.6022V18.6975H90.1327L92.544 15.0405H93.3509V19.7886H92.641V16.2269V16.1316H92.6244L90.2132 19.7886H89.4062Z" fill="#333333"/>
<path d="M95.3252 19.1318C95.111 18.9135 94.9426 18.653 94.8301 18.3661C94.7177 18.0793 94.6636 17.7721 94.6711 17.4633C94.6613 17.1488 94.7135 16.8355 94.8246 16.542C94.9358 16.2486 95.1036 15.9809 95.3182 15.7549C95.5327 15.5289 95.7896 15.3492 96.0735 15.2265C96.3574 15.1038 96.6626 15.0405 96.971 15.0405C97.2793 15.0405 97.5845 15.1038 97.8684 15.2265C98.1524 15.3492 98.4092 15.5289 98.6237 15.7549C98.8383 15.9809 99.0061 16.2486 99.1173 16.542C99.2284 16.8355 99.2806 17.1488 99.2708 17.4633C99.2597 17.9245 99.1177 18.3726 98.8619 18.7532C98.6061 19.1337 98.2476 19.4303 97.8299 19.607C97.4121 19.7836 96.9531 19.8328 96.5085 19.7484C96.0639 19.6641 95.6528 19.4499 95.3252 19.1318ZM95.8298 16.2523C95.6802 16.41 95.5632 16.5968 95.4857 16.8015C95.4083 17.0063 95.372 17.2248 95.3789 17.4442C95.3721 17.6635 95.4085 17.882 95.4859 18.0867C95.5634 18.2915 95.6803 18.4782 95.8298 18.636C96.1351 18.9396 96.5446 19.1095 96.971 19.1095C97.3973 19.1095 97.8068 18.9396 98.1121 18.636C98.2616 18.4782 98.3785 18.2915 98.456 18.0867C98.5334 17.882 98.5698 17.6635 98.563 17.4442C98.5699 17.2248 98.5336 17.0063 98.4562 16.8015C98.3787 16.5968 98.2617 16.41 98.1121 16.2523C97.8068 15.9488 97.3973 15.7789 96.971 15.7789C96.5446 15.7789 96.1351 15.9488 95.8298 16.2523Z" fill="#333333"/>
<path d="M100.582 19.7886V15.0405H101.294V16.9869H103.814V15.0405H104.527V19.7886H103.814V17.6992H101.302V19.7886H100.582Z" fill="#333333"/>
<path d="M105.84 19.7886V15.0405H106.553V16.9869H109.072V15.0405H109.784V19.7886H109.072V17.6992H106.553V19.7886H105.84Z" fill="#333333"/>
<path d="M111.102 19.787V15.0405H111.883V16.6528H113.065C113.558 16.633 114.041 16.7943 114.416 17.1041C114.581 17.2436 114.712 17.4153 114.803 17.6077C114.893 17.8001 114.94 18.0087 114.94 18.2199C114.94 18.431 114.893 18.6397 114.803 18.832C114.712 19.0244 114.581 19.1961 114.416 19.3356C114.041 19.6455 113.558 19.8068 113.065 19.787H111.102ZM111.883 19.0749H113.065C113.353 19.0927 113.637 19.0079 113.864 18.8367C113.954 18.7591 114.026 18.664 114.076 18.5577C114.125 18.4514 114.151 18.3363 114.151 18.2199C114.151 18.1034 114.125 17.9883 114.076 17.882C114.026 17.7757 113.954 17.6807 113.864 17.603C113.638 17.4286 113.354 17.3394 113.065 17.3523H111.883V19.0749ZM115.58 19.787V15.0405H116.361V19.787H115.58Z" fill="#333333"/>
<path d="M117.682 19.7888V14.9453H118.392V18.5786V18.6758H118.408L120.819 14.9453H121.626V19.7888H120.916V16.1555V16.0583H120.897L118.486 19.7888H117.682ZM118.328 13.0059H119C118.997 13.0856 119.011 13.1649 119.04 13.238C119.07 13.3111 119.114 13.3761 119.17 13.428C119.319 13.5333 119.494 13.5893 119.672 13.5893C119.85 13.5893 120.024 13.5333 120.173 13.428C120.229 13.3761 120.274 13.3111 120.303 13.238C120.333 13.1649 120.347 13.0856 120.344 13.0059H121.016C121.022 13.1728 120.992 13.3391 120.93 13.492C120.868 13.6449 120.774 13.7805 120.656 13.8886C120.368 14.1098 120.024 14.2287 119.671 14.2287C119.317 14.2287 118.973 14.1098 118.685 13.8886C118.568 13.7802 118.475 13.6444 118.413 13.4915C118.351 13.3387 118.322 13.1726 118.328 13.0059Z" fill="#333333"/>
<path d="M51.9316 27.9307V23.1826H52.6273V25.0828H53.5062L54.9116 23.1826H55.7441L54.1208 25.4138L55.8763 27.9206H55.0043L53.5109 25.7848H52.632V27.9206L51.9316 27.9307Z" fill="#333333"/>
<path d="M55.873 27.9307L57.1844 23.1826H59.1638L60.4751 27.9307H59.6685L58.5897 23.8946H57.746L56.6697 27.9307H55.873Z" fill="#333333"/>
<path d="M61.7779 27.2482C61.3633 26.7796 61.1348 26.1786 61.1348 25.5565C61.1348 24.9343 61.3633 24.3333 61.7779 23.8648C61.9759 23.6469 62.2188 23.4734 62.4903 23.3559C62.7619 23.2383 63.0557 23.1795 63.3522 23.1833C63.6921 23.1747 64.0288 23.2503 64.3315 23.4032C64.5606 23.5203 64.7611 23.6852 64.9191 23.8865L65.0023 24.0243V23.263H65.7368V27.8402H65.0023V27.1152L64.9191 27.2433C64.7703 27.438 64.5786 27.5966 64.3584 27.7073C64.0491 27.864 63.7045 27.9405 63.3571 27.9297C63.0598 27.9342 62.765 27.8756 62.4926 27.7581C62.2201 27.6405 61.9764 27.4666 61.7779 27.2482ZM62.319 24.3336C62.0298 24.6753 61.8713 25.1064 61.8713 25.5516C61.8713 25.9969 62.0298 26.428 62.319 26.7696C62.4647 26.9194 62.6396 27.0385 62.8332 27.1198C63.0267 27.2012 63.2349 27.2431 63.4452 27.2431C63.6556 27.2431 63.8637 27.2012 64.0573 27.1198C64.2508 27.0385 64.4257 26.9194 64.5714 26.7696C64.8625 26.4288 65.0221 25.9974 65.0221 25.5516C65.0221 25.1059 64.8625 24.6744 64.5714 24.3336C64.426 24.1833 64.2513 24.0636 64.0577 23.9819C63.8641 23.9002 63.6558 23.858 63.4452 23.858C63.2347 23.858 63.0263 23.9002 62.8327 23.9819C62.6392 24.0636 62.4644 24.1833 62.319 24.3336Z" fill="#333333"/>
<path d="M67.724 27.2528C67.2922 26.7892 67.0527 26.1842 67.0527 25.5564C67.0527 24.9287 67.2922 24.3236 67.724 23.8601C67.955 23.6349 68.2308 23.4586 68.5343 23.3424C68.8377 23.2261 69.1623 23.1723 69.4879 23.1843C69.8135 23.1962 70.1331 23.2738 70.4268 23.412C70.7205 23.5502 70.982 23.7462 71.1951 23.9878C71.387 24.2224 71.5299 24.4918 71.6155 24.7806H70.878C70.8041 24.6074 70.6973 24.4496 70.5633 24.3155C70.4098 24.1625 70.2252 24.0427 70.0216 23.9639C69.8179 23.885 69.5997 23.8489 69.3809 23.8577C69.1681 23.8533 68.9569 23.8941 68.7617 23.9773C68.5665 24.0605 68.392 24.1841 68.2501 24.3396C67.945 24.6682 67.7828 25.1004 67.7978 25.5444C67.7846 25.9908 67.9526 26.424 68.2649 26.7492C68.4058 26.902 68.578 27.024 68.7704 27.107C68.9627 27.19 69.1707 27.2323 69.3809 27.2311C69.6109 27.2422 69.8405 27.203 70.0531 27.1163C70.2657 27.0296 70.456 26.8976 70.61 26.7299C70.7451 26.5898 70.8496 26.4242 70.9173 26.2432H71.6548C71.5744 26.5522 71.4287 26.8411 71.2271 27.0913C71.0061 27.3612 70.7245 27.5773 70.4043 27.7228C70.084 27.8682 69.7338 27.9391 69.3809 27.9299C69.0718 27.9368 68.7646 27.8801 68.4793 27.7634C68.1939 27.6468 67.9366 27.4729 67.724 27.2528Z" fill="#333333"/>
<path d="M71.6504 23.8946V23.1826H75.595V23.8946H73.9896V27.9307H73.2631V23.8946H71.6504Z" fill="#333333"/>
<path d="M76.9212 27.2528C76.4985 26.7914 76.2637 26.1856 76.2637 25.5566C76.2637 24.9276 76.4985 24.3218 76.9212 23.8604C77.1339 23.6391 77.3895 23.4647 77.6721 23.3482C77.9546 23.2317 78.258 23.1755 78.563 23.1833C78.868 23.1764 79.1712 23.2321 79.4542 23.3472C79.7373 23.4624 79.9942 23.6344 80.2095 23.853C80.4247 24.0715 80.5938 24.332 80.7065 24.6187C80.8192 24.9053 80.8731 25.2121 80.8649 25.5205V25.7855H76.9879C77.0247 26.1874 77.2082 26.5611 77.5027 26.8336C77.7903 27.1054 78.1718 27.2524 78.5654 27.2432C78.9843 27.2536 79.3922 27.1078 79.7116 26.8336C79.8506 26.7203 79.9671 26.5813 80.0547 26.424H80.7696C80.6026 26.876 80.3002 27.2641 79.9047 27.534C79.5091 27.804 79.0401 27.9424 78.563 27.9299C78.258 27.9378 77.9546 27.8818 77.672 27.7653C77.3894 27.6487 77.1338 27.4743 76.9212 27.2528ZM77.0022 25.147H80.1C80.0501 24.7943 79.8758 24.4717 79.6091 24.2387C79.3211 23.9876 78.9503 23.8551 78.5702 23.8676C78.1882 23.8568 77.8157 23.9889 77.5241 24.2387C77.2478 24.4681 77.0625 24.7906 77.0022 25.147Z" fill="#333333"/>
<path d="M82.1777 29.9656V23.2885H82.9103V24.0551L83.0031 23.9095C83.1524 23.7033 83.3455 23.5362 83.5671 23.4214C83.875 23.2537 84.2189 23.1718 84.5658 23.1838C84.8618 23.1799 85.1552 23.2421 85.4264 23.3664C85.6976 23.4907 85.9403 23.6741 86.1383 23.9044C86.5519 24.3998 86.7798 25.0353 86.7798 25.6931C86.7798 26.3509 86.5519 26.9864 86.1383 27.4818C85.8142 27.839 85.3896 28.0787 84.9263 28.166C84.463 28.2534 83.9851 28.1837 83.5622 27.9673C83.3378 27.8546 83.1451 27.683 83.0031 27.469L82.9103 27.3336V29.9656H82.1777ZM83.3669 24.4205C83.0766 24.7809 82.9174 25.2371 82.9174 25.7084C82.9174 26.1797 83.0766 26.6359 83.3669 26.9963C83.5123 27.1546 83.6867 27.2805 83.8797 27.3665C84.0727 27.4526 84.2803 27.4969 84.4901 27.4969C84.6999 27.4969 84.9075 27.4526 85.1006 27.3665C85.2936 27.2805 85.468 27.1546 85.6134 26.9963C85.9036 26.6359 86.0628 26.1797 86.0628 25.7084C86.0628 25.2371 85.9036 24.7809 85.6134 24.4205C85.4684 24.2616 85.294 24.1351 85.101 24.0486C84.9079 23.9622 84.7001 23.9176 84.4901 23.9176C84.2801 23.9176 84.0723 23.9622 83.8793 24.0486C83.6862 24.1351 83.5119 24.2616 83.3669 24.4205Z" fill="#333333"/>
<path d="M45.649 1.48486H34.7383V30.997H45.649V1.48486Z" fill="#333333"/>
<path d="M28.2759 1.48486H17.3652V28.3428H28.2759V1.48486Z" fill="#333333"/>
<path d="M-0.00585938 31.4718V19.9165C4.60315 19.9104 9.02142 17.9649 12.2785 14.5072C15.5355 11.0495 17.3649 6.36244 17.3649 1.47559L28.2756 1.47559C28.2699 9.42749 25.2887 17.0521 19.9864 22.6759C14.6841 28.2997 7.49394 31.4631 -0.00585938 31.4718Z" fill="url(#paint0_linear_1203_2509)"/>
<path d="M17.3652 31.4718V19.9165C21.9748 19.9113 26.3939 17.9661 29.6516 14.5083C32.9093 11.0506 34.7391 6.36301 34.7391 1.47559L45.6498 1.47559C45.6432 9.42779 42.6613 17.0524 37.3586 22.6761C32.0558 28.2998 24.8653 31.4631 17.3652 31.4718Z" fill="url(#paint1_linear_1203_2509)"/>
</g>
<defs>
<linearGradient id="paint0_linear_1203_2509" x1="3.40432" y1="28.4192" x2="29.0995" y2="3.6882" gradientUnits="userSpaceOnUse">
<stop stop-color="#00EF12"/>
<stop offset="1" stop-color="#00FFE9"/>
</linearGradient>
<linearGradient id="paint1_linear_1203_2509" x1="1134.89" y1="3294.46" x2="3475.44" y2="1042.23" gradientUnits="userSpaceOnUse">
<stop stop-color="#00EF12"/>
<stop offset="1" stop-color="#00FFE9"/>
</linearGradient>
<clipPath id="clip0_1203_2509">
<rect width="140" height="31.2849" fill="white" transform="translate(0 0.357422)"/>
</clipPath>
</defs>
</svg>
