<svg width="222" height="47" viewBox="0 0 222 47" fill="none" xmlns="http://www.w3.org/2000/svg">
<g clip-path="url(#clip0_1121_1131)">
<path d="M87.75 12.8703V0H90.3435L94.0992 8.25328H94.907L98.6627 0H101.256V12.8703H99.6453V1.84V1.65551H99.6122L95.9605 9.74373H93.0079L89.3798 1.65551H89.342V1.84V12.8703H87.75Z" fill="white"/>
<path d="M104.907 11.6906C104.473 11.2466 104.131 10.7162 103.903 10.1319C103.674 9.54762 103.564 8.92162 103.579 8.29217C103.577 7.66291 103.695 7.03931 103.927 6.45697C104.159 5.87463 104.501 5.34496 104.932 4.8982C105.363 4.45144 105.876 4.09634 106.44 3.85318C107.005 3.61001 107.611 3.48355 108.223 3.481C108.836 3.47845 109.442 3.59986 110.009 3.83832C110.576 4.07677 111.091 4.42759 111.526 4.87074C111.961 5.31389 112.306 5.8407 112.543 6.42109C112.779 7.00147 112.902 7.62407 112.905 8.25333C112.882 9.1919 112.594 10.1034 112.077 10.8775C111.56 11.6515 110.836 12.2549 109.992 12.6146C109.148 12.9742 108.221 13.0747 107.322 12.9038C106.424 12.7329 105.593 12.298 104.931 11.6517L104.907 11.6906ZM105.923 5.8259C105.621 6.14804 105.386 6.5286 105.229 6.94537C105.073 7.36214 104.998 7.80678 105.011 8.25333C105 8.69966 105.075 9.14377 105.232 9.56028C105.388 9.97679 105.623 10.3575 105.923 10.6808C106.544 11.2912 107.371 11.6319 108.23 11.6319C109.09 11.6319 109.917 11.2912 110.538 10.6808C110.84 10.3589 111.076 9.97844 111.232 9.5616C111.389 9.14475 111.463 8.69996 111.45 8.25333C111.464 7.80698 111.391 7.36224 111.235 6.94534C111.079 6.52843 110.844 6.1478 110.543 5.8259C109.925 5.20758 109.097 4.86156 108.235 4.86156C107.373 4.86156 106.545 5.20758 105.927 5.8259H105.923Z" fill="white"/>
<path d="M115.604 11.6904C115.176 11.2355 114.842 10.6966 114.622 10.1059C114.403 9.51532 114.301 8.88515 114.323 8.25317C114.307 7.6269 114.412 7.00351 114.634 6.41982C114.855 5.83613 115.188 5.30397 115.613 4.85476C116.057 4.40096 116.587 4.04588 117.17 3.81161C117.753 3.57735 118.377 3.46891 119.003 3.49305C119.628 3.51718 120.243 3.67337 120.807 3.9519C121.371 4.23043 121.874 4.62534 122.283 5.11207C122.651 5.58588 122.925 6.12829 123.091 6.70932H121.674C121.534 6.36851 121.334 6.05738 121.084 5.79175C120.788 5.4835 120.434 5.24218 120.042 5.08331C119.651 4.92444 119.232 4.85155 118.811 4.86932C118.402 4.86045 117.996 4.94264 117.621 5.11024C117.246 5.27785 116.911 5.5269 116.638 5.8403C116.045 6.49406 115.723 7.35954 115.741 8.25317C115.715 9.15252 116.038 10.0255 116.638 10.6806C116.909 10.9885 117.24 11.2342 117.61 11.4015C117.979 11.5689 118.379 11.6541 118.783 11.6516C119.225 11.674 119.666 11.595 120.075 11.4203C120.483 11.2457 120.849 10.9797 121.145 10.6418C121.411 10.3501 121.619 10.0068 121.754 9.63195H123.172C122.927 10.6268 122.359 11.506 121.562 12.1239C120.764 12.7419 119.786 13.0617 118.788 13.0304C118.195 13.0473 117.606 12.9369 117.058 12.7062C116.51 12.4754 116.014 12.1294 115.604 11.6904Z" fill="white"/>
<path d="M124.957 12.8704V3.67529H126.374V7.35529H128.165L131.028 3.67529H132.747L129.44 7.99613L133.016 12.851H131.226L128.179 8.73892H126.388V12.8753L124.957 12.8704Z" fill="white"/>
<path d="M134.778 11.6907C134.344 11.2465 134.003 10.716 133.776 10.1317C133.549 9.54732 133.439 8.92144 133.455 8.29231C133.436 7.65182 133.541 7.01376 133.766 6.41604C133.991 5.81832 134.33 5.27312 134.764 4.81284C135.198 4.35256 135.717 3.98658 136.291 3.73664C136.866 3.4867 137.483 3.35791 138.106 3.35791C138.73 3.35791 139.347 3.4867 139.921 3.73664C140.495 3.98658 141.015 4.35256 141.449 4.81284C141.883 5.27312 142.222 5.81832 142.447 6.41604C142.672 7.01376 142.777 7.65182 142.757 8.29231C142.735 9.23183 142.448 10.1445 141.93 10.9195C141.413 11.6945 140.688 12.2986 139.843 12.6584C138.998 13.0182 138.07 13.1183 137.171 12.9466C136.272 12.7748 135.441 12.3385 134.778 11.6907ZM135.799 5.82603C135.497 6.14754 135.26 6.52798 135.104 6.94491C134.947 7.36183 134.873 7.80678 134.887 8.25347C134.874 8.70009 134.948 9.14488 135.104 9.56173C135.261 9.97858 135.497 10.3591 135.799 10.6809C136.42 11.2913 137.247 11.632 138.106 11.632C138.966 11.632 139.793 11.2913 140.414 10.6809C140.714 10.3577 140.949 9.97692 141.105 9.56041C141.261 9.1439 141.336 8.6998 141.326 8.25347C141.338 7.80691 141.264 7.36227 141.108 6.9455C140.951 6.52873 140.715 6.14817 140.414 5.82603C139.797 5.20772 138.969 4.86169 138.106 4.86169C137.244 4.86169 136.416 5.20772 135.799 5.82603Z" fill="white"/>
<path d="M144.723 12.8702V3.67509H149.107C149.818 3.63523 150.519 3.86498 151.077 4.32079C151.307 4.52512 151.491 4.77967 151.615 5.066C151.738 5.35232 151.798 5.66326 151.79 5.9763C151.792 6.25959 151.751 6.54147 151.667 6.81134C151.601 7.02517 151.497 7.22444 151.36 7.39878C151.249 7.53312 151.12 7.65078 150.977 7.74833C150.872 7.8245 150.758 7.8865 150.637 7.93281C150.576 7.95586 150.513 7.97055 150.448 7.97651C150.521 7.98304 150.592 7.99936 150.661 8.02506C150.809 8.07273 150.95 8.13962 151.081 8.22411C151.259 8.33284 151.425 8.45971 151.577 8.60278C151.754 8.78498 151.89 9.00336 151.979 9.24363C152.095 9.54314 152.153 9.86312 152.149 10.1855C152.164 10.5498 152.101 10.913 151.963 11.2489C151.825 11.5848 151.616 11.8849 151.351 12.1274C150.726 12.6523 149.931 12.9158 149.126 12.8654L144.723 12.8702ZM146.14 7.44733H149.003C149.896 7.44733 150.344 7.04923 150.344 6.24817C150.344 5.44712 149.896 5.05387 149.003 5.05387H146.14V7.44733ZM146.14 11.4914H149.092C149.523 11.5209 149.949 11.3899 150.292 11.1225C150.43 10.9962 150.538 10.84 150.609 10.6653C150.68 10.4906 150.712 10.3018 150.703 10.1126C150.713 9.92274 150.681 9.73309 150.61 9.55754C150.538 9.382 150.43 9.22499 150.292 9.09798C149.948 8.83227 149.522 8.703 149.092 8.73387H146.14V11.4914Z" fill="white"/>
<path d="M154.865 11.6905C154.441 11.2407 154.109 10.7083 153.888 10.1247C153.668 9.54108 153.563 8.91798 153.58 8.29208C153.562 7.66612 153.667 7.04286 153.888 6.45915C154.108 5.87544 154.441 5.34312 154.865 4.89367C155.309 4.43974 155.84 4.08458 156.423 3.85027C157.007 3.61595 157.631 3.50749 158.257 3.53162C158.883 3.55575 159.498 3.71196 160.062 3.99055C160.627 4.26913 161.13 4.66412 161.54 5.15098C161.908 5.62389 162.18 6.16669 162.343 6.74823H160.926C160.788 6.40661 160.587 6.0952 160.336 5.83066C160.041 5.52193 159.686 5.28028 159.295 5.12137C158.903 4.96247 158.484 4.88985 158.063 4.90823C157.654 4.89936 157.248 4.98155 156.873 5.14915C156.498 5.31676 156.163 5.56581 155.89 5.87921C155.307 6.54301 154.997 7.41305 155.026 8.30664C154.999 9.20531 155.32 10.0782 155.918 10.7341C156.189 11.0418 156.521 11.2873 156.89 11.4546C157.26 11.6219 157.659 11.7072 158.063 11.7051C158.505 11.7278 158.947 11.649 159.355 11.4743C159.764 11.2996 160.129 11.0335 160.425 10.6952C160.695 10.4061 160.902 10.0621 161.035 9.68543H162.452C162.298 10.308 162.017 10.8902 161.63 11.3943C161.204 11.94 160.661 12.3767 160.042 12.6698C159.424 12.963 158.748 13.1047 158.068 13.0838C157.469 13.0967 156.873 12.9793 156.322 12.7391C155.77 12.499 155.273 12.1416 154.865 11.6905Z" fill="white"/>
<path d="M164.223 12.8704V3.67529H165.64V7.35529H167.426L170.288 3.67529H171.989L168.682 7.99613L172.263 12.851H170.473L167.44 8.73892H165.654V12.8753L164.223 12.8704Z" fill="white"/>
<path d="M173.609 12.8704V3.67529H175.027V10.5692V10.7537H175.06L179.874 3.67529H181.484V12.8704H180.067V5.9765V5.79202H180.029L175.22 12.8704H173.609Z" fill="white"/>
<path d="M183.988 12.8703V3.67514H185.406V10.5691V10.7535H185.439L190.248 3.67514H191.859V12.8703H190.441V5.97635V5.79186H190.404L185.594 12.8703H183.988ZM185.273 0H186.601C186.596 0.151132 186.624 0.301495 186.683 0.440092C186.741 0.578689 186.83 0.702016 186.941 0.801054C187.229 1.02075 187.584 1.12749 187.942 1.10206C188.307 1.13314 188.67 1.02608 188.963 0.801054C189.073 0.701553 189.16 0.578019 189.218 0.439447C189.277 0.300874 189.304 0.150749 189.298 0L190.64 0C190.646 0.314679 190.584 0.626802 190.457 0.913336C190.33 1.19987 190.142 1.4535 189.908 1.65551C189.35 2.1108 188.649 2.33895 187.938 2.29635C187.228 2.33774 186.529 2.10966 185.972 1.65551C185.744 1.45001 185.563 1.19488 185.442 0.908578C185.321 0.622273 185.263 0.311937 185.273 0V0Z" fill="white"/>
<path d="M87.75 28.1873V18.9971H89.1672V25.891V26.0755H89.205L94.0095 18.9971H95.6156V28.1873H94.1984V21.2934V21.1089H94.1653L89.3609 28.1873H87.75Z" fill="white"/>
<path d="M98.125 28.1873V18.9971H99.5422V22.7644H104.555V18.9971H105.972V28.1873H104.555V24.1432H99.5564V28.1873H98.125Z" fill="white"/>
<path d="M108.504 28.1873V18.9971H109.921V22.7644H114.929V18.9971H116.346V28.1873H114.929V24.1432H109.921V28.1873H108.504Z" fill="white"/>
<path d="M119.661 27.0125C119.228 26.5678 118.887 26.0372 118.66 25.453C118.433 24.8687 118.323 24.2431 118.338 23.6141C118.318 22.9736 118.424 22.3355 118.649 21.7378C118.874 21.1401 119.213 20.5949 119.647 20.1346C120.081 19.6743 120.6 19.3084 121.174 19.0584C121.748 18.8085 122.366 18.6797 122.989 18.6797C123.613 18.6797 124.23 18.8085 124.804 19.0584C125.378 19.3084 125.898 19.6743 126.332 20.1346C126.765 20.5949 127.105 21.1401 127.33 21.7378C127.554 22.3355 127.66 22.9736 127.64 23.6141C127.618 24.5536 127.33 25.4663 126.813 26.2413C126.296 27.0163 125.571 27.6204 124.726 27.9802C123.881 28.34 122.953 28.4401 122.054 28.2683C121.155 28.0966 120.324 27.6603 119.661 27.0125ZM120.681 21.1478C120.379 21.469 120.142 21.8494 119.986 22.2664C119.829 22.6834 119.756 23.1285 119.77 23.5752C119.756 24.022 119.83 24.467 119.986 24.884C120.143 25.3009 120.379 25.6813 120.681 26.0027C121.299 26.621 122.127 26.967 122.989 26.967C123.851 26.967 124.679 26.621 125.297 26.0027C125.599 25.6813 125.836 25.3009 125.992 24.884C126.149 24.467 126.222 24.022 126.209 23.5752C126.223 23.1285 126.149 22.6834 125.993 22.2664C125.836 21.8494 125.599 21.469 125.297 21.1478C124.679 20.5295 123.851 20.1835 122.989 20.1835C122.127 20.1835 121.299 20.5295 120.681 21.1478Z" fill="white"/>
<path d="M129.609 28.1875V18.9972H133.989C134.7 18.9546 135.401 19.1828 135.959 19.6381C136.19 19.842 136.374 20.0964 136.498 20.3829C136.621 20.6693 136.681 20.9805 136.672 21.2936C136.675 21.5769 136.633 21.8588 136.549 22.1286C136.438 22.5169 136.193 22.8501 135.859 23.0656C135.754 23.1418 135.64 23.2038 135.519 23.2501C135.459 23.2764 135.395 23.2928 135.33 23.2987C135.404 23.3055 135.477 23.3201 135.548 23.3423C135.696 23.3909 135.837 23.4595 135.968 23.5462C136.137 23.654 136.296 23.7793 136.44 23.9201C136.617 24.1038 136.754 24.3238 136.842 24.5658C136.958 24.8635 137.016 25.1819 137.012 25.5028C137.027 25.8665 136.963 26.229 136.826 26.5646C136.689 26.9002 136.481 27.2007 136.218 27.4447C135.591 27.9673 134.795 28.2289 133.989 28.1778L129.609 28.1875ZM131.027 22.7646H133.885C134.782 22.7646 135.226 22.3665 135.226 21.5703C135.226 20.7741 134.796 20.3906 133.899 20.3906H131.041L131.027 22.7646ZM131.027 26.8087H133.974C134.405 26.8404 134.832 26.7092 135.174 26.4398C135.305 26.3079 135.408 26.1506 135.479 25.9773C135.549 25.8039 135.586 25.6179 135.586 25.4299C135.586 25.242 135.549 25.0559 135.479 24.8826C135.408 24.7092 135.305 24.552 135.174 24.4201C134.832 24.1507 134.405 24.0194 133.974 24.0512H131.027V26.8087Z" fill="white"/>
<path d="M139.715 27.0028C138.879 26.0834 138.429 24.8623 138.463 23.6044C138.428 22.3463 138.878 21.1251 139.715 20.206C140.098 19.7682 140.567 19.4196 141.092 19.1835C141.617 18.9474 142.184 18.8292 142.757 18.8369C143.413 18.8172 144.063 18.9693 144.647 19.2787C145.092 19.5094 145.479 19.8415 145.78 20.2497L145.941 20.5215V18.9971H147.358V28.1874H145.941V26.7018L145.78 26.9591C145.489 27.3589 145.11 27.6831 144.675 27.9058C144.079 28.2232 143.414 28.3786 142.743 28.3573C142.174 28.3648 141.609 28.2479 141.087 28.0144C140.565 27.7808 140.097 27.436 139.715 27.0028ZM140.778 21.1478C140.194 21.8108 139.883 22.6814 139.913 23.5753C139.884 24.469 140.194 25.3394 140.778 26.0027C141.059 26.3048 141.396 26.5452 141.77 26.7095C142.144 26.8738 142.546 26.9585 142.953 26.9585C143.36 26.9585 143.762 26.8738 144.136 26.7095C144.51 26.5452 144.848 26.3048 145.128 26.0027C145.712 25.3394 146.022 24.469 145.993 23.5753C146.023 22.6814 145.713 21.8108 145.128 21.1478C144.848 20.8457 144.51 20.6053 144.136 20.441C143.762 20.2767 143.36 20.192 142.953 20.192C142.546 20.192 142.144 20.2767 141.77 20.441C141.396 20.6053 141.059 20.8457 140.778 21.1478Z" fill="white"/>
<path d="M149.91 28.1873V18.9971H151.327V26.8086H155.981V18.9971H157.398V26.8086H158.65V30.2992H157.233V28.1873H149.91Z" fill="white"/>
<path d="M160.195 28.1873V18.9971H161.613V25.891V26.0755H161.646L166.459 18.9971H168.07V28.1873H166.653V21.2934V21.1089H166.62L161.806 28.1873H160.195Z" fill="white"/>
<path d="M171.356 27.0125C170.923 26.5678 170.583 26.0372 170.355 25.453C170.128 24.8687 170.018 24.2431 170.034 23.6141C170.014 22.9736 170.119 22.3355 170.344 21.7378C170.569 21.1401 170.908 20.5949 171.342 20.1346C171.776 19.6743 172.295 19.3084 172.87 19.0584C173.444 18.8085 174.061 18.6797 174.685 18.6797C175.308 18.6797 175.925 18.8085 176.499 19.0584C177.074 19.3084 177.593 19.6743 178.027 20.1346C178.461 20.5949 178.8 21.1401 179.025 21.7378C179.25 22.3355 179.355 22.9736 179.335 23.6141C179.313 24.5536 179.026 25.4663 178.508 26.2413C177.991 27.0163 177.266 27.6204 176.421 27.9802C175.577 28.34 174.648 28.4401 173.749 28.2683C172.85 28.0966 172.019 27.6603 171.356 27.0125ZM172.377 21.1478C172.074 21.469 171.838 21.8494 171.681 22.2664C171.524 22.6834 171.451 23.1285 171.465 23.5752C171.451 24.022 171.525 24.467 171.681 24.884C171.838 25.3009 172.075 25.6813 172.377 26.0027C172.994 26.621 173.822 26.967 174.685 26.967C175.547 26.967 176.375 26.621 176.992 26.0027C177.295 25.6813 177.531 25.3009 177.688 24.884C177.844 24.467 177.918 24.022 177.904 23.5752C177.918 23.1285 177.845 22.6834 177.688 22.2664C177.531 21.8494 177.295 21.469 176.992 21.1478C176.375 20.5295 175.547 20.1835 174.685 20.1835C173.822 20.1835 172.994 20.5295 172.377 21.1478Z" fill="white"/>
<path d="M181.301 28.1873V18.9971H182.718V22.7644H187.73V18.9971H189.148V28.1873H187.73V24.1432H182.732V28.1873H181.301Z" fill="white"/>
<path d="M191.68 28.1873V18.9971H193.097V22.7644H198.104V18.9971H199.522V28.1873H198.104V24.1432H193.097V28.1873H191.68Z" fill="white"/>
<path d="M202.055 28.1873V18.9971H203.472V22.1188H205.617C206.512 22.0804 207.388 22.3927 208.068 22.9926C208.367 23.2628 208.606 23.5952 208.77 23.9677C208.934 24.3402 209.018 24.7443 209.018 25.153C209.018 25.5618 208.934 25.9659 208.77 26.3384C208.606 26.7109 208.367 27.0433 208.068 27.3135C207.388 27.9134 206.512 28.2257 205.617 28.1873H202.055ZM203.472 26.8086H205.617C206.139 26.843 206.655 26.6789 207.067 26.3473C207.231 26.1971 207.361 26.013 207.451 25.8072C207.54 25.6014 207.587 25.3785 207.587 25.153C207.587 24.9276 207.54 24.7047 207.451 24.4989C207.361 24.2931 207.231 24.109 207.067 23.9587C206.657 23.621 206.141 23.4483 205.617 23.4733H203.472V26.8086ZM210.18 28.1873V18.9971H211.597V28.1873H210.18Z" fill="white"/>
<path d="M214.129 28.1874V18.9971H215.546V25.891V26.0755H215.579L220.393 18.9971H222.004V28.1874H220.587V21.2935V21.109H220.549L215.735 28.1874H214.129ZM215.419 15.3171H216.76C216.755 15.4684 216.782 15.6189 216.841 15.7577C216.9 15.8964 216.989 16.0196 217.1 16.1182C217.398 16.3179 217.746 16.4242 218.102 16.4242C218.458 16.4242 218.806 16.3179 219.103 16.1182C219.215 16.0196 219.304 15.8964 219.363 15.7577C219.422 15.6189 219.449 15.4684 219.444 15.3171H220.785C220.797 15.634 220.738 15.9494 220.614 16.2396C220.489 16.5297 220.302 16.787 220.067 16.9921C219.492 17.4118 218.805 17.6374 218.1 17.6374C217.394 17.6374 216.707 17.4118 216.132 16.9921C215.898 16.7863 215.712 16.5288 215.588 16.2387C215.465 15.9486 215.407 15.6336 215.419 15.3171Z" fill="white"/>
<path d="M87.75 43.5093V34.3142H89.1672V37.9942H90.9577L93.8205 34.3142H95.5164L92.2096 38.635L95.7857 43.4899H94.0094L90.9671 39.3536H89.1767V43.4899L87.75 43.5093Z" fill="white"/>
<path d="M96.0703 43.5093L98.5741 34.3142H102.353L104.857 43.5093H103.317L101.257 35.693H99.6465L97.5915 43.5093H96.0703Z" fill="white"/>
<path d="M106.983 42.32C106.183 41.3788 105.742 40.1714 105.742 38.9216C105.742 37.6718 106.183 36.4644 106.983 35.5232C107.365 35.0856 107.834 34.737 108.358 34.5009C108.882 34.2647 109.449 34.1465 110.021 34.1541C110.677 34.137 111.326 34.2889 111.91 34.5959C112.352 34.8312 112.739 35.1625 113.044 35.5669L113.205 35.8436V34.3143H114.622V43.5095H113.205V42.053L113.044 42.3103C112.757 42.7014 112.387 43.0201 111.962 43.2425C111.366 43.5572 110.701 43.7109 110.03 43.6891C109.457 43.6981 108.888 43.5806 108.362 43.3444C107.836 43.1082 107.366 42.7589 106.983 42.32ZM108.027 36.4651C107.469 37.1514 107.163 38.0175 107.163 38.9119C107.163 39.8064 107.469 40.6724 108.027 41.3588C108.308 41.6595 108.646 41.8988 109.019 42.0622C109.393 42.2256 109.794 42.3099 110.2 42.3099C110.606 42.3099 111.008 42.2256 111.381 42.0622C111.755 41.8988 112.092 41.6595 112.373 41.3588C112.935 40.6741 113.243 39.8074 113.243 38.9119C113.243 38.0164 112.935 37.1497 112.373 36.4651C112.093 36.1631 111.756 35.9227 111.382 35.7585C111.009 35.5943 110.607 35.5096 110.2 35.5096C109.794 35.5096 109.392 35.5943 109.018 35.7585C108.645 35.9227 108.308 36.1631 108.027 36.4651Z" fill="white"/>
<path d="M117.927 42.3296C117.097 41.3956 116.637 40.1765 116.637 38.9117C116.637 37.647 117.097 36.4279 117.927 35.4939C118.371 35.0401 118.901 34.685 119.484 34.4508C120.067 34.2165 120.691 34.1081 121.316 34.1322C121.942 34.1563 122.556 34.3125 123.121 34.5911C123.685 34.8696 124.188 35.2645 124.597 35.7512C124.966 36.2239 125.241 36.7667 125.405 37.3485H123.988C123.846 36.9996 123.641 36.6816 123.383 36.4115C123.088 36.1032 122.733 35.8619 122.342 35.7031C121.951 35.5442 121.531 35.4713 121.111 35.4891C120.702 35.4802 120.296 35.5624 119.921 35.73C119.546 35.8976 119.21 36.1466 118.938 36.46C118.351 37.122 118.04 37.9929 118.068 38.8875C118.043 39.7868 118.366 40.6598 118.966 41.3149C119.237 41.6228 119.568 41.8685 119.938 42.0358C120.307 42.2032 120.707 42.2884 121.111 42.2859C121.553 42.3083 121.994 42.2293 122.403 42.0546C122.811 41.88 123.177 41.614 123.473 41.2761C123.732 40.9937 123.933 40.66 124.063 40.2954H125.481C125.326 40.9179 125.046 41.5002 124.659 42.0043C124.234 42.548 123.693 42.9834 123.077 43.2765C122.462 43.5696 121.789 43.7124 121.111 43.6938C120.517 43.7077 119.927 43.5934 119.378 43.3585C118.83 43.1235 118.335 42.773 117.927 42.3296Z" fill="white"/>
<path d="M126.133 35.693V34.3142H133.828V35.693H130.696V43.5093H129.279V35.693H126.133Z" fill="white"/>
<path d="M135.921 42.3297C135.083 41.3999 134.617 40.1793 134.617 38.9119C134.617 37.6445 135.083 36.4239 135.921 35.4941C136.342 35.0482 136.849 34.6968 137.409 34.462C137.97 34.2272 138.571 34.1141 139.176 34.1299C139.78 34.1158 140.381 34.2282 140.943 34.4601C141.504 34.6921 142.013 35.0388 142.44 35.4791C142.867 35.9195 143.202 36.4444 143.425 37.022C143.648 37.5996 143.755 38.2178 143.739 38.8391V39.3731H136.053C136.126 40.1829 136.49 40.9358 137.073 41.485C137.644 42.0325 138.4 42.3288 139.18 42.3103C140.011 42.3313 140.82 42.0375 141.453 41.485C141.728 41.2567 141.959 40.9766 142.133 40.6597H143.55C143.219 41.5704 142.62 42.3523 141.835 42.8963C141.051 43.4402 140.121 43.7191 139.176 43.694C138.571 43.71 137.969 43.597 137.409 43.3622C136.849 43.1274 136.342 42.7759 135.921 42.3297ZM136.081 38.0866H142.223C142.124 37.3758 141.778 36.7258 141.25 36.2563C140.679 35.7503 139.943 35.4835 139.19 35.5086C138.433 35.4868 137.694 35.7531 137.116 36.2563C136.568 36.7187 136.201 37.3685 136.081 38.0866Z" fill="white"/>
<path d="M145.707 47V34.3142H147.124V35.7707L147.304 35.494C147.593 35.1022 147.966 34.7848 148.395 34.5667C148.991 34.2481 149.656 34.0926 150.327 34.1152C150.9 34.1078 151.468 34.2261 151.992 34.4622C152.517 34.6983 152.986 35.0468 153.37 35.4843C154.17 36.4255 154.611 37.6329 154.611 38.8827C154.611 40.1325 154.17 41.3399 153.37 42.2811C152.742 42.9598 151.921 43.4152 151.025 43.5811C150.128 43.747 149.204 43.6147 148.386 43.2035C147.951 42.9895 147.579 42.6633 147.304 42.2568L147.124 41.9995V47H145.707ZM148.008 36.465C147.446 37.1497 147.138 38.0163 147.138 38.9118C147.138 39.8073 147.446 40.674 148.008 41.3587C148.289 41.6594 148.626 41.8987 149 42.0621C149.373 42.2255 149.775 42.3098 150.181 42.3098C150.587 42.3098 150.988 42.2255 151.362 42.0621C151.735 41.8987 152.073 41.6594 152.354 41.3587C152.915 40.674 153.223 39.8073 153.223 38.9118C153.223 38.0163 152.915 37.1497 152.354 36.465C152.073 36.163 151.736 35.9226 151.363 35.7584C150.989 35.5942 150.587 35.5095 150.181 35.5095C149.775 35.5095 149.372 35.5942 148.999 35.7584C148.625 35.9226 148.288 36.163 148.008 36.465Z" fill="white"/>
<path d="M69.4395 0.0146484H52.8438V43.524H69.4395V0.0146484Z" fill="white"/>
<path d="M43.0177 0.0146484H26.4219V39.611H43.0177V0.0146484Z" fill="white"/>
<path d="M0 44.223V27.1873C7.01057 27.1783 13.731 24.3099 18.6851 19.2123C23.6393 14.1147 26.4219 7.20463 26.4219 0L43.0177 0C43.009 11.7234 38.4744 22.9643 30.4093 31.2553C22.3442 39.5464 11.4076 44.2102 0 44.223Z" fill="url(#paint0_linear_1121_1131)"/>
<path d="M26.4219 44.223V27.1873C33.4333 27.1796 40.1549 24.3118 45.1101 19.214C50.0652 14.1162 52.8485 7.20547 52.8485 0L69.4443 0C69.4343 11.7238 64.8987 22.9647 56.8329 31.2556C48.767 39.5465 37.8299 44.2102 26.4219 44.223Z" fill="url(#paint1_linear_1121_1131)"/>
</g>
<defs>
<linearGradient id="paint0_linear_1121_1131" x1="5.18707" y1="39.7225" x2="43.0959" y2="2.07876" gradientUnits="userSpaceOnUse">
<stop stop-color="#00EF12"/>
<stop offset="1" stop-color="#00FFE9"/>
</linearGradient>
<linearGradient id="paint1_linear_1121_1131" x1="1726.24" y1="4854.8" x2="5179.35" y2="1426.59" gradientUnits="userSpaceOnUse">
<stop stop-color="#00EF12"/>
<stop offset="1" stop-color="#00FFE9"/>
</linearGradient>
<clipPath id="clip0_1121_1131">
<rect width="222" height="47" fill="white"/>
</clipPath>
</defs>
</svg>
