<svg width="70" height="71" viewBox="0 0 70 71" fill="none" xmlns="http://www.w3.org/2000/svg">
<rect x="20.7402" y="17.0768" width="15.5556" height="41.4815" stroke="black"/>
<rect x="36.2969" y="32.6323" width="16.8519" height="25.9259" stroke="black"/>
<rect x="12.9629" y="30.0398" width="7.77778" height="28.5185" stroke="black"/>
<path d="M23.9805 22.262H33.0545" stroke="black"/>
<path d="M23.9805 27.4471H33.0545" stroke="black"/>
<path d="M23.9805 32.6323H33.0545" stroke="black"/>
<path d="M15.5547 33.9286H18.1473" stroke="black"/>
<path d="M23.9805 37.8175H33.0545" stroke="black"/>
<path d="M15.5547 39.1138H18.1473" stroke="black"/>
<path d="M40.1855 37.8175H49.2596" stroke="black"/>
<path d="M23.9805 43.0027H33.0545" stroke="black"/>
<path d="M15.5547 44.299H18.1473" stroke="black"/>
<path d="M40.1855 43.0027H49.2596" stroke="black"/>
<path d="M23.9805 48.1879H33.0545" stroke="black"/>
<path d="M15.5547 49.4841H18.1473" stroke="black"/>
<path d="M40.1855 48.1879H49.2596" stroke="black"/>
<path d="M23.9805 53.373H33.0545" stroke="black"/>
<path d="M15.5547 54.6694H18.1473" stroke="black"/>
<path d="M40.1855 53.373H49.2596" stroke="black"/>
<path fill-rule="evenodd" clip-rule="evenodd" d="M50.3321 19.0057V15.7805H55.9758V18.9926C57.1126 19.3465 58.155 19.9346 59.1025 20.7576L61.9173 19.0985L64.8138 23.8501L61.9851 25.509C62.0573 25.8189 62.1114 26.1417 62.1478 26.4778C62.1655 26.6816 62.1792 26.8853 62.1882 27.0885C62.1882 27.2038 62.1882 27.3228 62.1882 27.4472C62.1882 28.1281 62.1204 28.7833 61.9851 29.4116L64.8138 31.0571L61.9173 35.809L59.0752 34.1496C58.1367 34.9549 57.1038 35.5388 55.9758 35.9018V39.1139H50.3321V35.9018C49.7006 35.698 49.0959 35.4235 48.5185 35.0788C48.3471 34.9726 48.1754 34.8622 48.0042 34.7469C47.7426 34.5609 47.4854 34.3619 47.2325 34.1496L44.377 35.809L41.4805 31.0571L44.3226 29.3977C44.1872 28.7785 44.1197 28.1281 44.1197 27.4472C44.1197 26.7743 44.1872 26.1288 44.3226 25.509L41.4805 23.8501L44.377 19.0985L47.2191 20.7576C48.1576 19.9437 49.1951 19.3596 50.3321 19.0057ZM51.8343 23.4652C51.284 23.6335 50.7832 23.9123 50.3321 24.3016C50.2599 24.3632 50.1921 24.4249 50.129 24.4871C49.4884 25.1155 49.0959 25.85 48.9515 26.6907C48.9064 26.9378 48.884 27.1904 48.884 27.4472C48.884 27.5619 48.8884 27.6724 48.8974 27.7785C48.9064 27.9292 48.9244 28.0798 48.9515 28.23C48.9605 28.2739 48.9696 28.3227 48.9786 28.3758C49.141 29.1371 49.5245 29.8138 50.129 30.4067C50.1921 30.4689 50.2599 30.5306 50.3321 30.5923C50.7922 30.9906 51.2974 31.2742 51.8477 31.4421C52.2537 31.5659 52.687 31.6281 53.1471 31.6281C53.2106 31.6281 53.2781 31.6281 53.3503 31.6281C53.7292 31.6104 54.0947 31.5482 54.4465 31.4421C55.0059 31.2742 55.5157 30.9906 55.9758 30.5923C56.039 30.5306 56.1021 30.4689 56.1653 30.4067C56.4269 30.1505 56.6481 29.876 56.8285 29.5838C57.0902 29.1682 57.2616 28.7125 57.343 28.2171C57.3879 27.9689 57.4106 27.7126 57.4106 27.4472C57.4106 27.1813 57.3922 26.9293 57.3564 26.6907C57.2031 25.85 56.8061 25.1155 56.1653 24.4871C56.1021 24.4249 56.039 24.3681 55.9758 24.3144C55.9668 24.3059 55.9578 24.2973 55.9488 24.2882C55.7954 24.1552 55.6418 24.0362 55.4887 23.9295C55.1636 23.7263 54.8254 23.5713 54.4736 23.4652C54.0586 23.3322 53.6165 23.2663 53.1471 23.2663C52.678 23.2663 52.2403 23.3322 51.8343 23.4652Z" fill="url(#paint0_linear_570_1286)"/>
<defs>
<linearGradient id="paint0_linear_570_1286" x1="41.4805" y1="27.4472" x2="64.7922" y2="27.4472" gradientUnits="userSpaceOnUse">
<stop stop-color="#16FF00"/>
<stop offset="1" stop-color="#4DFFC9"/>
<stop offset="1" stop-color="#4DFFC9"/>
</linearGradient>
</defs>
</svg>
