<svg width="70" height="70" viewBox="0 0 70 70" fill="none" xmlns="http://www.w3.org/2000/svg">
<path d="M42.6356 27.2222C42.6356 29.2535 41.8051 31.7493 40.445 33.7358C39.0766 35.7343 37.2637 37.0926 35.3579 37.0926C33.452 37.0926 31.6391 35.7343 30.2707 33.7358C28.9106 31.7493 28.0801 29.2535 28.0801 27.2222C28.0801 23.2028 31.3384 19.9445 35.3579 19.9445C39.3773 19.9445 42.6356 23.2028 42.6356 27.2222Z" stroke="black"/>
<path d="M34.9752 45.6934L35.3569 46.1445L35.7386 45.6934L40.7736 39.743C40.9636 39.5184 41.2428 39.3889 41.5369 39.3889H43.6162C46.6537 39.3889 49.1162 41.8513 49.1162 44.8889V54.7408C49.1162 55.0169 48.8923 55.2408 48.6162 55.2408H22.0977C21.8215 55.2408 21.5977 55.0169 21.5977 54.7408V44.8889C21.5977 41.8513 24.0601 39.3889 27.0977 39.3889H29.1769C29.471 39.3889 29.7503 39.5184 29.9403 39.743L34.9752 45.6934Z" stroke="black"/>
<path d="M60.1575 29.502C60.1575 31.0888 59.5071 33.0483 58.4382 34.6094C57.361 36.1826 55.9504 37.2267 54.4889 37.2267C53.0274 37.2267 51.6168 36.1826 50.5396 34.6094C49.4707 33.0483 48.8203 31.0888 48.8203 29.502C48.8203 26.3713 51.3582 23.8334 54.4889 23.8334C57.6196 23.8334 60.1575 26.3713 60.1575 29.502Z" stroke="black"/>
<path d="M53.1934 43.8952L57.493 39.2373C57.7769 38.9297 58.1765 38.7548 58.5952 38.7548H59.5305C62.8442 38.7548 65.5305 41.4411 65.5305 44.7548V50.8518C65.5305 51.4041 65.0828 51.8518 64.5305 51.8518H53.1934" stroke="black"/>
<path d="M10.5574 29.502C10.5574 31.0888 11.2078 33.0483 12.2767 34.6094C13.3538 36.1826 14.7645 37.2267 16.2259 37.2267C17.6874 37.2267 19.0981 36.1826 20.1752 34.6094C21.2441 33.0483 21.8945 31.0888 21.8945 29.502C21.8945 26.3713 19.3566 23.8334 16.2259 23.8334C13.0953 23.8334 10.5574 26.3713 10.5574 29.502Z" stroke="black"/>
<path d="M17.5215 43.8952L13.2219 39.2373C12.9379 38.9297 12.5383 38.7548 12.1197 38.7548H11.1843C7.87061 38.7548 5.18432 41.4411 5.18432 44.7548V50.8518C5.18432 51.4041 5.63203 51.8518 6.18432 51.8518H17.5215" stroke="black"/>
<circle cx="46.0191" cy="17.5001" r="9.72222" fill="url(#paint0_linear_570_1292)"/>
<path d="M41.4824 16.5897L45.2112 20.3185L51.2704 14.2593" stroke="black" stroke-width="2"/>
<defs>
<linearGradient id="paint0_linear_570_1292" x1="36.2969" y1="17.5001" x2="55.7233" y2="17.5001" gradientUnits="userSpaceOnUse">
<stop stop-color="#16FF00"/>
<stop offset="1" stop-color="#4DFFC9"/>
</linearGradient>
</defs>
</svg>
