<svg width="70" height="70" viewBox="0 0 70 70" fill="none" xmlns="http://www.w3.org/2000/svg">
<path d="M43.3857 26.0913C45.9539 26.0883 48.4416 25.195 50.425 23.5635C52.4083 21.9321 53.7647 19.6634 54.263 17.1441C54.7613 14.6247 54.3707 12.0105 53.1577 9.74686C51.9447 7.4832 49.9844 5.71013 47.6108 4.72971C45.2371 3.74929 42.5969 3.62217 40.1401 4.37002C37.6832 5.11787 35.5616 6.69441 34.1368 8.83106C32.7119 10.9677 32.072 13.5323 32.3259 16.0879C32.5799 18.6434 33.712 21.0319 35.5295 22.8464C36.5588 23.8806 37.7834 24.7001 39.132 25.2571C40.4807 25.8142 41.9266 26.0977 43.3857 26.0913Z" fill="url(#paint0_linear_570_1305)"/>
<path d="M31.1478 21.5095C31.1517 22.3254 31.3414 23.144 31.6549 23.9149C31.986 24.7292 32.4444 25.4889 33.0421 26.1123C33.5549 26.6474 34.2344 27.0814 34.8996 27.1575C35.6429 27.2426 36.2918 26.96 36.9005 26.4812C37.5249 25.9902 38.0346 25.247 38.4116 24.5092C38.7896 23.7696 39.0709 22.8892 39.1586 22.0944C39.3512 20.3485 38.5708 18.6698 37.1108 17.8056C35.8698 17.0711 34.3133 17.126 33.096 17.8856C31.8883 18.6393 31.1562 20.0411 31.1478 21.5095C31.1447 22.0578 30.3358 22.0581 30.3389 21.5095C30.3498 19.606 31.3783 17.8304 32.9992 16.9717C34.661 16.0914 36.6868 16.3206 38.1497 17.5166C38.8506 18.0897 39.3668 18.8563 39.69 19.7222C40.0159 20.5955 40.0525 21.5392 39.9213 22.4578C39.7926 23.3598 39.4748 24.2373 39.0602 25.0352C38.6506 25.8236 38.1041 26.5634 37.4287 27.1187C36.7761 27.6551 36.0082 28.015 35.1692 28.0224C34.336 28.0298 33.5545 27.6487 32.9097 27.1187C31.5691 26.0166 30.6809 24.2083 30.4171 22.4578C30.3697 22.1439 30.3404 21.8275 30.3389 21.5095C30.3363 20.9609 31.1453 20.9611 31.1478 21.5095Z" fill="black"/>
<path d="M31.1478 21.5095C31.1517 22.3254 31.3414 23.144 31.6549 23.9149C31.986 24.7293 32.4444 25.4889 33.0421 26.1123C33.5549 26.6474 34.2344 27.0814 34.8996 27.1575C35.6429 27.2426 36.2918 26.96 36.9005 26.4812C37.5249 25.9902 38.0346 25.247 38.4116 24.5092C38.7896 23.7696 39.0709 22.8892 39.1586 22.0944C39.3512 20.3485 38.5708 18.6698 37.1108 17.8056C35.8698 17.0711 34.3133 17.126 33.096 17.8856C31.8883 18.6393 31.1562 20.0411 31.1478 21.5095ZM31.1478 21.5095C31.1447 22.0578 30.3358 22.0581 30.3389 21.5095C30.3498 19.606 31.3783 17.8304 32.9992 16.9717C34.661 16.0914 36.6868 16.3206 38.1497 17.5166C38.8506 18.0897 39.3668 18.8563 39.69 19.7222C40.0159 20.5955 40.0525 21.5392 39.9213 22.4578C39.7926 23.3598 39.4748 24.2373 39.0602 25.0352C38.6506 25.8236 38.1041 26.5634 37.4287 27.1187C36.7761 27.6551 36.0082 28.015 35.1692 28.0224C34.336 28.0298 33.5545 27.6487 32.9097 27.1187C31.5691 26.0166 30.6809 24.2083 30.4171 22.4578C30.3697 22.1439 30.3404 21.8275 30.3389 21.5095C30.3363 20.9609 31.1453 20.9611 31.1478 21.5095Z" stroke="black" stroke-width="0.648148"/>
<path d="M26.3529 33.8218C26.3529 34.9744 26.3529 36.1271 26.3529 37.2797C26.2128 37.148 26.0726 37.0163 25.9324 36.8846C27.1797 36.8846 28.4269 36.8846 29.6743 36.8846C32.2233 36.8846 34.7723 36.8846 37.3213 36.8846C39.3827 36.8846 41.4441 36.8846 43.5055 36.8846C43.7974 36.8846 44.0893 36.8846 44.3811 36.8846C44.241 37.0163 44.1008 37.148 43.9606 37.2797C43.9606 36.3411 43.9606 35.4026 43.9606 34.464C43.9606 34.0638 43.9819 33.6402 43.9214 33.2524C43.7974 32.457 43.4273 31.715 42.8617 31.1218C42.219 30.4477 41.3673 30.0121 40.4233 29.8399C39.8246 29.7307 39.1683 29.7773 38.5521 29.7773C38.6732 29.7121 38.7942 29.6468 38.9152 29.5816C37.7986 31.0138 36.682 32.4459 35.5653 33.8781C35.5455 33.9035 35.5257 33.9289 35.5059 33.9543C35.3098 34.2057 34.9753 34.2075 34.7796 33.9543C33.6701 32.5196 32.5606 31.0848 31.4512 29.65C31.4335 29.6272 31.4159 29.6044 31.3982 29.5816C31.5193 29.6468 31.6403 29.7121 31.7614 29.7773C31.3746 29.7773 30.9878 29.7755 30.6011 29.7776C29.845 29.7817 29.1052 29.9866 28.4546 30.3463C27.1531 31.0657 26.3617 32.4105 26.3529 33.8218C26.3498 34.3313 25.5087 34.3316 25.5118 33.8218C25.5228 32.0562 26.5603 30.4115 28.2131 29.5665C28.9746 29.1771 29.8358 28.987 30.7006 28.987C30.9812 28.987 31.2619 28.987 31.5425 28.987C31.7884 28.987 31.9775 28.9925 32.1417 29.2048C33.2596 30.6505 34.3775 32.0962 35.4955 33.542C35.4989 33.5465 35.5024 33.5509 35.5059 33.5554C35.2638 33.5554 35.0217 33.5554 34.7796 33.5554C35.8962 32.1233 37.0128 30.6912 38.1295 29.259C38.2443 29.1118 38.3613 28.9869 38.5802 28.9869C38.8549 28.9869 39.1296 28.9869 39.4043 28.9869C40.2087 28.9869 40.9769 29.0925 41.7197 29.3947C43.4457 30.0968 44.5965 31.6586 44.781 33.4034C44.8505 34.0609 44.8017 34.7414 44.8017 35.4006C44.8017 36.027 44.8017 36.6533 44.8017 37.2797C44.8017 37.4951 44.6104 37.6749 44.3811 37.6749C43.1338 37.6749 41.8865 37.6749 40.6393 37.6749C38.0903 37.6749 35.5413 37.6749 32.9923 37.6749C30.9309 37.6749 28.8694 37.6749 26.8081 37.6749C26.5162 37.6749 26.2243 37.6749 25.9325 37.6749C25.7032 37.6749 25.5119 37.4951 25.5119 37.2797C25.5119 36.1271 25.5119 34.9744 25.5119 33.8218C25.5118 33.3121 26.3529 33.3121 26.3529 33.8218Z" fill="black"/>
<path d="M26.3529 33.8218C26.3529 34.9744 26.3529 36.1271 26.3529 37.2797C26.2128 37.148 26.0726 37.0163 25.9324 36.8846C27.1797 36.8846 28.4269 36.8846 29.6743 36.8846C32.2233 36.8846 34.7723 36.8846 37.3213 36.8846C39.3827 36.8846 41.4441 36.8846 43.5055 36.8846C43.7974 36.8846 44.0893 36.8846 44.3811 36.8846C44.241 37.0163 44.1008 37.148 43.9606 37.2797C43.9606 36.3411 43.9606 35.4026 43.9606 34.464C43.9606 34.0638 43.9819 33.6402 43.9214 33.2524C43.7974 32.457 43.4273 31.715 42.8617 31.1218C42.219 30.4477 41.3673 30.0121 40.4233 29.8399C39.8246 29.7307 39.1683 29.7773 38.5521 29.7773C38.6732 29.7121 38.7942 29.6468 38.9152 29.5816C37.7986 31.0138 36.682 32.4459 35.5653 33.8781C35.5455 33.9035 35.5257 33.9289 35.5059 33.9543C35.3098 34.2057 34.9753 34.2075 34.7796 33.9543C33.6701 32.5196 32.5606 31.0848 31.4512 29.65C31.4335 29.6272 31.4159 29.6044 31.3982 29.5816C31.5193 29.6468 31.6403 29.7121 31.7614 29.7773C31.3746 29.7773 30.9878 29.7755 30.6011 29.7776C29.845 29.7817 29.1052 29.9866 28.4546 30.3463C27.1531 31.0657 26.3617 32.4105 26.3529 33.8218ZM26.3529 33.8218C26.3498 34.3313 25.5087 34.3316 25.5118 33.8218C25.5228 32.0562 26.5603 30.4115 28.2131 29.5665C28.9746 29.1771 29.8358 28.987 30.7006 28.987C30.9812 28.987 31.2619 28.987 31.5425 28.987C31.7884 28.987 31.9775 28.9925 32.1417 29.2048C33.2596 30.6505 34.3775 32.0962 35.4955 33.542C35.4989 33.5465 35.5024 33.5509 35.5059 33.5554C35.2638 33.5554 35.0217 33.5554 34.7796 33.5554C35.8962 32.1233 37.0128 30.6912 38.1295 29.259C38.2443 29.1118 38.3613 28.9869 38.5802 28.9869C38.8549 28.9869 39.1296 28.9869 39.4043 28.9869C40.2087 28.9869 40.9769 29.0925 41.7197 29.3947C43.4457 30.0968 44.5965 31.6586 44.781 33.4034C44.8505 34.0609 44.8017 34.7414 44.8017 35.4006C44.8017 36.027 44.8017 36.6533 44.8017 37.2797C44.8017 37.4951 44.6104 37.6749 44.3811 37.6749C43.1338 37.6749 41.8865 37.6749 40.6393 37.6749C38.0903 37.6749 35.5413 37.6749 32.9923 37.6749C30.9309 37.6749 28.8694 37.6749 26.8081 37.6749C26.5162 37.6749 26.2243 37.6749 25.9325 37.6749C25.7032 37.6749 25.5119 37.4951 25.5119 37.2797C25.5119 36.1271 25.5119 34.9744 25.5119 33.8218C25.5118 33.3121 26.3529 33.3121 26.3529 33.8218Z" stroke="black" stroke-width="0.648148"/>
<rect x="13.611" y="37.3577" width="44.0741" height="7.39165" stroke="black" stroke-width="1.2963"/>
<rect x="19.404" y="44.7222" width="32.4902" height="19.9409" stroke="black" stroke-width="1.2963"/>
<rect x="27.4434" y="49.2593" width="17.3759" height="8.68794" rx="2.59259" fill="url(#paint1_linear_570_1305)"/>
<rect x="27.2227" y="49.2593" width="17.3759" height="8.68794" rx="2.59259" fill="url(#paint2_linear_570_1305)"/>
<defs>
<linearGradient id="paint0_linear_570_1305" x1="32.2715" y1="14.9902" x2="54.4534" y2="14.9902" gradientUnits="userSpaceOnUse">
<stop stop-color="#16FF00"/>
<stop offset="1" stop-color="#4DFFC9"/>
</linearGradient>
<linearGradient id="paint1_linear_570_1305" x1="27.4434" y1="57.9472" x2="30.9037" y2="45.4165" gradientUnits="userSpaceOnUse">
<stop stop-color="#16FF00"/>
<stop offset="1" stop-color="#4DFFC9"/>
</linearGradient>
<linearGradient id="paint2_linear_570_1305" x1="27.2227" y1="57.9472" x2="30.683" y2="45.4165" gradientUnits="userSpaceOnUse">
<stop stop-color="#16FF00"/>
<stop offset="1" stop-color="#4DFFC9"/>
</linearGradient>
</defs>
</svg>
