<svg width="70" height="71" viewBox="0 0 70 71" fill="none" xmlns="http://www.w3.org/2000/svg">
<path d="M43.159 12.76C48.4602 12.1796 53.9732 14.8667 56.9378 20.0015C59.9024 25.1364 59.4729 31.2543 56.3197 35.5551L43.159 12.76Z" fill="url(#paint0_linear_570_1311)"/>
<path d="M19.4492 52.0433L30.3553 62.2342C31.9278 63.7036 34.3946 63.6164 35.8595 62.0397L38.1955 59.5253C39.3574 58.2746 39.4426 56.4844 38.0879 55.4456C35.5286 53.4831 31.4229 50.8385 29.2513 47.0773" stroke="black" stroke-width="1.2963"/>
<path d="M15.7292 51.1419L9.36488 40.1185C8.64895 38.8785 9.07381 37.2929 10.3138 36.5769L21.221 30.2797C21.4811 30.1295 21.713 29.9354 21.9066 29.7059L37.4814 11.2387L54.7982 41.2322L31.0177 45.4867C30.7221 45.5396 30.438 45.6434 30.178 45.7935L19.2708 52.0908C18.0308 52.8067 16.4452 52.3819 15.7292 51.1419Z" stroke="black" stroke-width="1.2963"/>
<path d="M31.4461 45.1162L22.4414 29.5195" stroke="black" stroke-width="1.2963"/>
<rect x="36.0957" y="8.83887" width="4.15602" height="40.1749" rx="2.07801" transform="rotate(-30 36.0957 8.83887)" stroke="black" stroke-width="1.2963"/>
<path d="M31.8176 51.3007C32.939 49.9422 34.2408 46.9156 30.4762 45.6765" stroke="black" stroke-width="1.2963"/>
<path d="M9.4293 40.2311C7.82443 42.3325 7.54282 45.2756 8.94709 47.7079C10.3514 50.1402 13.041 51.3679 15.6633 51.0287L9.4293 40.2311Z" fill="url(#paint1_linear_570_1311)" stroke="black" stroke-width="1.2963"/>
<defs>
<linearGradient id="paint0_linear_570_1311" x1="56.9378" y1="20.0015" x2="49.746" y2="24.1537" gradientUnits="userSpaceOnUse">
<stop stop-color="#16FF00"/>
<stop offset="1" stop-color="#4DFFC9"/>
<stop offset="1" stop-color="#4DFFC9"/>
</linearGradient>
<linearGradient id="paint1_linear_570_1311" x1="8.94709" y1="47.7079" x2="12.543" y2="45.6318" gradientUnits="userSpaceOnUse">
<stop stop-color="#16FF00"/>
<stop offset="1" stop-color="#4DFFC9"/>
<stop offset="1" stop-color="#4DFFC9"/>
</linearGradient>
</defs>
</svg>
