<svg width="226" height="51" viewBox="0 0 226 51" fill="none" xmlns="http://www.w3.org/2000/svg">
<path d="M88.8242 16.6304V5.54346H90.9833L94.1099 12.6532H94.7824L97.9089 5.54346H100.068V16.6304H98.7269V7.1285V6.96958H98.6994L95.6594 13.9371H93.2014L90.181 6.96958H90.1496V7.1285V16.6304H88.8242Z" fill="black"/>
<path d="M103.602 15.5736C103.183 15.211 102.853 14.7779 102.633 14.3008C102.413 13.8236 102.307 13.3125 102.322 12.7985C102.319 12.2846 102.433 11.7754 102.657 11.2998C102.881 10.8243 103.21 10.3918 103.626 10.0269C104.042 9.66212 104.536 9.37215 105.081 9.17358C105.625 8.97502 106.21 8.87174 106.8 8.86966C107.391 8.86758 107.976 8.96673 108.523 9.16145C109.069 9.35617 109.566 9.64264 109.985 10.0045C110.405 10.3664 110.738 10.7966 110.966 11.2705C111.194 11.7445 111.313 12.2529 111.315 12.7667C111.293 13.5332 111.016 14.2775 110.517 14.9096C110.018 15.5417 109.32 16.0344 108.506 16.3281C107.692 16.6218 106.798 16.7038 105.931 16.5643C105.065 16.4247 104.264 16.0696 103.625 15.5419L103.602 15.5736ZM104.581 10.7845C104.291 11.0476 104.064 11.3583 103.913 11.6987C103.762 12.039 103.69 12.4021 103.702 12.7667C103.692 13.1312 103.764 13.4939 103.915 13.834C104.066 14.1741 104.292 14.485 104.581 14.749C105.181 15.2475 105.978 15.5256 106.807 15.5256C107.636 15.5256 108.433 15.2475 109.033 14.749C109.324 14.4862 109.551 14.1755 109.702 13.8351C109.853 13.4947 109.925 13.1315 109.912 12.7667C109.926 12.4023 109.855 12.0391 109.705 11.6986C109.555 11.3582 109.328 11.0474 109.037 10.7845C108.442 10.2796 107.643 9.99702 106.812 9.99702C105.98 9.99702 105.182 10.2796 104.586 10.7845H104.581Z" fill="black"/>
<path d="M113.579 15.539C113.199 15.1691 112.902 14.7308 112.706 14.2504C112.511 13.7701 112.42 13.2576 112.44 12.7436C112.425 12.2343 112.519 11.7273 112.716 11.2526C112.913 10.7779 113.209 10.3451 113.587 9.97976C113.982 9.61069 114.453 9.32192 114.972 9.1314C115.49 8.94087 116.045 8.85268 116.601 8.87231C117.157 8.89194 117.704 9.01897 118.205 9.24549C118.707 9.47201 119.154 9.79318 119.518 10.189C119.845 10.5744 120.089 11.0155 120.237 11.488H118.977C118.852 11.2109 118.674 10.9578 118.451 10.7418C118.189 10.4911 117.874 10.2948 117.526 10.1656C117.178 10.0364 116.805 9.97715 116.431 9.99161C116.067 9.98439 115.706 10.0512 115.373 10.1875C115.039 10.3239 114.741 10.5264 114.499 10.7813C113.971 11.313 113.685 12.0168 113.7 12.7436C113.678 13.475 113.965 14.185 114.499 14.7178C114.739 14.9682 115.034 15.168 115.362 15.3041C115.691 15.4402 116.047 15.5095 116.406 15.5075C116.799 15.5257 117.191 15.4614 117.554 15.3194C117.918 15.1773 118.243 14.961 118.506 14.6862C118.743 14.449 118.927 14.1698 119.048 13.8649H120.308C120.09 14.674 119.585 15.389 118.876 15.8916C118.168 16.3942 117.297 16.6543 116.41 16.6288C115.883 16.6426 115.359 16.5528 114.872 16.3651C114.384 16.1775 113.944 15.8961 113.579 15.539Z" fill="black"/>
<path d="M121.434 16.6264V8.86963H122.818V11.974H124.566L127.362 8.86963H129.041L125.812 12.5146L129.304 16.61H127.556L124.58 13.1412H122.831V16.6305L121.434 16.6264Z" fill="black"/>
<path d="M130.425 15.557C130.058 15.2005 129.77 14.7747 129.578 14.3058C129.385 13.8368 129.293 13.3346 129.307 12.8297C129.29 12.3156 129.379 11.8036 129.569 11.3239C129.759 10.8442 130.046 10.4067 130.413 10.0373C130.78 9.66787 131.22 9.37416 131.705 9.17357C132.191 8.97299 132.713 8.86963 133.24 8.86963C133.767 8.86963 134.289 8.97299 134.775 9.17357C135.26 9.37416 135.7 9.66787 136.067 10.0373C136.434 10.4067 136.721 10.8442 136.911 11.3239C137.101 11.8036 137.19 12.3156 137.173 12.8297C137.154 13.5837 136.911 14.3161 136.474 14.9381C136.037 15.5601 135.423 16.0449 134.709 16.3336C133.994 16.6224 133.209 16.7027 132.449 16.5649C131.689 16.427 130.986 16.0769 130.425 15.557ZM131.288 10.8504C131.033 11.1084 130.833 11.4137 130.701 11.7483C130.568 12.0829 130.506 12.44 130.517 12.7985C130.506 13.1569 130.569 13.5139 130.701 13.8484C130.834 14.1829 131.033 14.4883 131.288 14.7466C131.814 15.2365 132.513 15.5099 133.24 15.5099C133.967 15.5099 134.666 15.2365 135.192 14.7466C135.445 14.4872 135.644 14.1816 135.776 13.8474C135.908 13.5131 135.972 13.1567 135.963 12.7985C135.973 12.4401 135.911 12.0833 135.778 11.7488C135.646 11.4143 135.446 11.1089 135.192 10.8504C134.669 10.3542 133.969 10.0765 133.24 10.0765C132.511 10.0765 131.811 10.3542 131.288 10.8504Z" fill="black"/>
<path d="M139.422 16.6294V8.87337H143.403C144.049 8.83975 144.686 9.03354 145.192 9.41802C145.402 9.59037 145.569 9.80508 145.681 10.0466C145.793 10.2881 145.847 10.5504 145.84 10.8144C145.842 11.0534 145.805 11.2912 145.728 11.5188C145.669 11.6992 145.574 11.8672 145.45 12.0143C145.349 12.1276 145.232 12.2269 145.102 12.3091C145.007 12.3734 144.903 12.4257 144.793 12.4648C144.738 12.4842 144.68 12.4966 144.622 12.5016C144.688 12.5071 144.752 12.5209 144.815 12.5426C144.949 12.5828 145.077 12.6392 145.196 12.7105C145.358 12.8022 145.508 12.9092 145.647 13.0299C145.807 13.1836 145.931 13.3678 146.012 13.5704C146.117 13.8231 146.169 14.093 146.166 14.3649C146.18 14.6721 146.122 14.9786 145.997 15.2619C145.872 15.5452 145.682 15.7983 145.441 16.0029C144.873 16.4456 144.152 16.6679 143.42 16.6253L139.422 16.6294ZM140.709 12.0552H143.309C144.12 12.0552 144.527 11.7194 144.527 11.0438C144.527 10.3681 144.12 10.0364 143.309 10.0364H140.709V12.0552ZM140.709 15.4664H143.39C143.781 15.4913 144.168 15.3808 144.48 15.1552C144.605 15.0487 144.703 14.917 144.768 14.7696C144.832 14.6222 144.861 14.463 144.853 14.3034C144.862 14.1433 144.833 13.9833 144.768 13.8352C144.703 13.6871 144.605 13.5547 144.48 13.4476C144.167 13.2234 143.78 13.1144 143.39 13.1404H140.709V15.4664Z" fill="black"/>
<path d="M148.434 15.4974C148.058 15.1322 147.764 14.6999 147.568 14.226C147.372 13.7521 147.279 13.2461 147.295 12.7379C147.279 12.2296 147.372 11.7235 147.568 11.2495C147.763 10.7755 148.058 10.3433 148.434 9.97831C148.828 9.60972 149.299 9.32132 149.816 9.13105C150.334 8.94079 150.888 8.85271 151.443 8.87231C151.998 8.8919 152.543 9.01875 153.044 9.24496C153.545 9.47118 153.991 9.79192 154.355 10.1873C154.681 10.5713 154.923 11.012 155.067 11.4842H153.81C153.688 11.2068 153.51 10.954 153.286 10.7392C153.025 10.4885 152.711 10.2922 152.363 10.1632C152.016 10.0342 151.644 9.97522 151.271 9.99014C150.908 9.98294 150.548 10.0497 150.216 10.1858C149.883 10.3219 149.585 10.5241 149.344 10.7786C148.827 11.3176 148.552 12.0241 148.577 12.7497C148.553 13.4794 148.838 14.1882 149.369 14.7208C149.609 14.9707 149.903 15.17 150.231 15.3059C150.558 15.4418 150.913 15.511 151.271 15.5093C151.663 15.5277 152.055 15.4637 152.417 15.3219C152.779 15.18 153.104 14.9639 153.366 14.6893C153.605 14.4545 153.789 14.1752 153.907 13.8693H155.164C155.027 14.3748 154.778 14.8476 154.435 15.257C154.057 15.7001 153.575 16.0546 153.026 16.2927C152.478 16.5308 151.879 16.6458 151.275 16.6289C150.744 16.6393 150.216 16.544 149.726 16.349C149.237 16.154 148.796 15.8638 148.434 15.4974Z" fill="black"/>
<path d="M156.289 16.6264V8.86963H157.676V11.974H159.424L162.227 8.86963H163.892L160.654 12.5146L164.16 16.61H162.407L159.438 13.1412H157.69V16.6305L156.289 16.6264Z" fill="black"/>
<path d="M165.285 16.6305V8.86963H166.499V14.6882V14.8439H166.528L170.651 8.86963H172.031V16.6305H170.817V10.8119V10.6562H170.785L166.665 16.6305H165.285Z" fill="black"/>
<path d="M174.277 16.6304V8.70937H175.492V14.6481V14.807H175.521L179.643 8.70937H181.024V16.6304H179.809V10.6917V10.5328H179.776L175.654 16.6304H174.277ZM175.379 5.54346H176.517C176.512 5.67365 176.536 5.80318 176.587 5.92257C176.637 6.04196 176.713 6.1482 176.808 6.23352C177.055 6.42277 177.36 6.51472 177.667 6.49281C177.979 6.51959 178.29 6.42736 178.541 6.23352C178.636 6.1478 178.711 6.04139 178.761 5.92201C178.81 5.80264 178.834 5.67332 178.829 5.54346L179.979 5.54346C179.984 5.81453 179.931 6.08341 179.822 6.33024C179.713 6.57707 179.553 6.79556 179.351 6.96958C178.873 7.36179 178.272 7.55832 177.663 7.52163C177.055 7.55728 176.455 7.3608 175.978 6.96958C175.782 6.79255 175.627 6.57278 175.523 6.32614C175.419 6.07951 175.37 5.81217 175.379 5.54346V5.54346Z" fill="black"/>
<path d="M88.8242 29.9347V22.1738H90.0398V27.9955V28.1513H90.0722L94.1929 22.1738H95.5705V29.9347H94.3549V24.113V23.9572H94.3266L90.2059 29.9347H88.8242Z" fill="black"/>
<path d="M97.8203 29.9347V22.1738H99.0388V25.3553H103.348V22.1738H104.567V29.9347H103.348V26.5196H99.051V29.9347H97.8203Z" fill="black"/>
<path d="M106.816 29.9347V22.1738H108.036V25.3553H112.343V22.1738H113.563V29.9347H112.343V26.5196H108.036V29.9347H106.816Z" fill="black"/>
<path d="M116.933 28.8612C116.567 28.5043 116.279 28.0785 116.087 27.6096C115.894 27.1408 115.802 26.6387 115.814 26.1339C115.798 25.6198 115.887 25.1078 116.077 24.6281C116.267 24.1484 116.554 23.7109 116.921 23.3415C117.288 22.9721 117.727 22.6784 118.213 22.4778C118.699 22.2772 119.22 22.1738 119.748 22.1738C120.275 22.1738 120.797 22.2772 121.283 22.4778C121.768 22.6784 122.208 22.9721 122.574 23.3415C122.941 23.7109 123.228 24.1484 123.419 24.6281C123.609 25.1078 123.698 25.6198 123.681 26.1339C123.662 26.8879 123.419 27.6203 122.982 28.2423C122.544 28.8643 121.931 29.349 121.217 29.6378C120.502 29.9266 119.717 30.0069 118.957 29.8691C118.196 29.7312 117.493 29.3811 116.933 28.8612ZM117.796 24.1546C117.54 24.4123 117.34 24.7176 117.208 25.0523C117.075 25.3869 117.013 25.7441 117.025 26.1027C117.013 26.4612 117.076 26.8183 117.208 27.153C117.341 27.4876 117.541 27.7929 117.796 28.0508C118.318 28.547 119.019 28.8247 119.748 28.8247C120.477 28.8247 121.177 28.547 121.7 28.0508C121.955 27.7929 122.155 27.4876 122.288 27.153C122.42 26.8183 122.482 26.4612 122.471 26.1027C122.482 25.7441 122.42 25.3869 122.288 25.0523C122.155 24.7176 121.955 24.4123 121.7 24.1546C121.177 23.6584 120.477 23.3807 119.748 23.3807C119.019 23.3807 118.318 23.6584 117.796 24.1546Z" fill="black"/>
<path d="M125.93 29.9347V22.1781H129.92C130.567 22.1421 131.206 22.3347 131.714 22.719C131.925 22.891 132.093 23.1058 132.205 23.3476C132.318 23.5893 132.372 23.8519 132.364 24.1162C132.367 24.3553 132.329 24.5933 132.252 24.821C132.151 25.1487 131.928 25.4299 131.624 25.6118C131.528 25.6761 131.424 25.7284 131.314 25.7675C131.259 25.7897 131.201 25.8036 131.142 25.8085C131.209 25.8143 131.275 25.8266 131.34 25.8454C131.475 25.8864 131.604 25.9442 131.723 26.0175C131.877 26.1084 132.022 26.2141 132.153 26.333C132.314 26.488 132.439 26.6737 132.519 26.8779C132.625 27.1292 132.678 27.398 132.674 27.6688C132.687 27.9757 132.629 28.2817 132.504 28.565C132.379 28.8482 132.19 29.1018 131.951 29.3078C131.379 29.7489 130.654 29.9697 129.92 29.9265L125.93 29.9347ZM127.221 25.3578H129.825C130.643 25.3578 131.047 25.0218 131.047 24.3498C131.047 23.6778 130.656 23.3541 129.838 23.3541H127.234L127.221 25.3578ZM127.221 28.771H129.907C130.299 28.7978 130.688 28.687 131 28.4596C131.119 28.3483 131.213 28.2156 131.277 28.0693C131.341 27.923 131.375 27.7659 131.375 27.6073C131.375 27.4487 131.341 27.2917 131.277 27.1453C131.213 26.999 131.119 26.8663 131 26.755C130.688 26.5276 130.299 26.4168 129.907 26.4436H127.221V28.771Z" fill="black"/>
<path d="M134.91 28.8294C134.17 28.0802 133.772 27.0852 133.802 26.0601C133.772 25.0349 134.17 24.0398 134.91 23.2908C135.249 22.9341 135.664 22.65 136.128 22.4576C136.592 22.2652 137.094 22.1689 137.601 22.1752C138.182 22.1592 138.757 22.2831 139.273 22.5352C139.666 22.7232 140.009 22.9939 140.276 23.3264L140.418 23.548V22.3058H141.671V29.7947H140.418V28.5841L140.276 28.7938C140.018 29.1196 139.683 29.3838 139.298 29.5652C138.771 29.8238 138.182 29.9505 137.589 29.9331C137.085 29.9392 136.586 29.8439 136.124 29.6537C135.662 29.4634 135.248 29.1824 134.91 28.8294ZM135.85 24.0583C135.333 24.5986 135.059 25.308 135.085 26.0364C135.06 26.7647 135.334 27.4739 135.85 28.0144C136.099 28.2606 136.397 28.4565 136.728 28.5904C137.059 28.7243 137.415 28.7933 137.775 28.7933C138.134 28.7933 138.49 28.7243 138.821 28.5904C139.152 28.4565 139.45 28.2606 139.699 28.0144C140.215 27.4739 140.489 26.7647 140.464 26.0364C140.49 25.308 140.216 24.5986 139.699 24.0583C139.45 23.8121 139.152 23.6162 138.821 23.4823C138.49 23.3485 138.134 23.2794 137.775 23.2794C137.415 23.2794 137.059 23.3485 136.728 23.4823C136.397 23.6162 136.099 23.8121 135.85 24.0583Z" fill="black"/>
<path d="M143.922 30.2876V22.1738H145.198V29.0703H149.389V22.1738H150.665V29.0703H151.793V32.1521H150.516V30.2876H143.922Z" fill="black"/>
<path d="M152.914 29.9347V22.1738H154.128V27.9955V28.1513H154.156L158.28 22.1738H159.66V29.9347H158.446V24.113V23.9572H158.418L154.294 29.9347H152.914Z" fill="black"/>
<path d="M163.031 28.8612C162.665 28.5043 162.376 28.0785 162.184 27.6096C161.992 27.1408 161.899 26.6387 161.912 26.1339C161.895 25.6198 161.985 25.1078 162.175 24.6281C162.365 24.1484 162.652 23.7109 163.019 23.3415C163.386 22.9721 163.825 22.6784 164.311 22.4778C164.796 22.2772 165.318 22.1738 165.845 22.1738C166.373 22.1738 166.895 22.2772 167.38 22.4778C167.866 22.6784 168.305 22.9721 168.672 23.3415C169.039 23.7109 169.326 24.1484 169.516 24.6281C169.706 25.1078 169.796 25.6198 169.779 26.1339C169.76 26.8879 169.517 27.6203 169.079 28.2423C168.642 28.8643 168.029 29.349 167.314 29.6378C166.6 29.9266 165.815 30.0069 165.055 29.8691C164.294 29.7312 163.591 29.3811 163.031 28.8612ZM163.894 24.1546C163.638 24.4123 163.438 24.7176 163.305 25.0523C163.173 25.3869 163.111 25.7441 163.123 26.1027C163.111 26.4612 163.173 26.8183 163.306 27.153C163.438 27.4876 163.638 27.7929 163.894 28.0508C164.416 28.547 165.116 28.8247 165.845 28.8247C166.575 28.8247 167.275 28.547 167.797 28.0508C168.053 27.7929 168.253 27.4876 168.385 27.153C168.518 26.8183 168.58 26.4612 168.568 26.1027C168.58 25.7441 168.518 25.3869 168.386 25.0523C168.253 24.7176 168.053 24.4123 167.797 24.1546C167.275 23.6584 166.575 23.3807 165.845 23.3807C165.116 23.3807 164.416 23.6584 163.894 24.1546Z" fill="black"/>
<path d="M172.031 29.9347V22.1738H173.25V25.3553H177.559V22.1738H178.778V29.9347H177.559V26.5196H173.262V29.9347H172.031Z" fill="black"/>
<path d="M181.023 29.9347V22.1738H182.243V25.3553H186.55V22.1738H187.77V29.9347H186.55V26.5196H182.243V29.9347H181.023Z" fill="black"/>
<path d="M190.02 29.932V22.1738H191.355V24.8091H193.377C194.221 24.7767 195.047 25.0404 195.688 25.5468C195.97 25.7749 196.195 26.0555 196.349 26.3699C196.504 26.6844 196.583 27.0255 196.583 27.3706C196.583 27.7156 196.504 28.0567 196.349 28.3712C196.195 28.6857 195.97 28.9663 195.688 29.1943C195.047 29.7007 194.221 29.9644 193.377 29.932H190.02ZM191.355 28.7681H193.377C193.869 28.7972 194.356 28.6586 194.744 28.3788C194.898 28.2519 195.022 28.0965 195.106 27.9228C195.19 27.7491 195.234 27.5609 195.234 27.3706C195.234 27.1802 195.19 26.9921 195.106 26.8183C195.022 26.6446 194.898 26.4892 194.744 26.3624C194.358 26.0772 193.872 25.9315 193.377 25.9525H191.355V28.7681ZM197.679 29.932V22.1738H199.015V29.932H197.679Z" fill="black"/>
<path d="M201.266 29.9349V22.018H202.48V27.9567V28.1156H202.508L206.632 22.018H208.012V29.9349H206.798V23.9962V23.8372H206.765L202.642 29.9349H201.266ZM202.37 18.8479H203.52C203.515 18.9782 203.539 19.1079 203.589 19.2274C203.64 19.3469 203.715 19.453 203.811 19.538C204.066 19.71 204.364 19.8016 204.669 19.8016C204.974 19.8016 205.272 19.71 205.527 19.538C205.623 19.453 205.699 19.3469 205.749 19.2274C205.8 19.1079 205.823 18.9782 205.818 18.8479H206.968C206.978 19.1208 206.928 19.3926 206.821 19.6425C206.714 19.8925 206.554 20.1141 206.353 20.2908C205.86 20.6524 205.271 20.8467 204.667 20.8467C204.063 20.8467 203.474 20.6524 202.982 20.2908C202.781 20.1135 202.622 19.8916 202.516 19.6418C202.41 19.3919 202.36 19.1205 202.37 18.8479Z" fill="black"/>
<path d="M88.8242 43.2391V35.4783H90.014V38.5843H91.5172L93.9206 35.4783H95.3444L92.5682 39.1251L95.5705 43.2227H94.0793L91.5251 39.7316H90.022V43.2227L88.8242 43.2391Z" fill="black"/>
<path d="M95.5703 43.2391L97.813 35.4783H101.198L103.441 43.2391H102.061L100.217 36.642H98.7736L96.9329 43.2391H95.5703Z" fill="black"/>
<path d="M105.666 42.1235C104.957 41.3577 104.566 40.3753 104.566 39.3584C104.566 38.3415 104.957 37.3591 105.666 36.5933C106.005 36.2372 106.42 35.9536 106.885 35.7614C107.349 35.5693 107.852 35.4731 108.359 35.4793C108.94 35.4654 109.516 35.589 110.034 35.8388C110.425 36.0302 110.768 36.2998 111.039 36.6288L111.181 36.854V35.6097H112.437V43.0913H111.181V41.9063L111.039 42.1156C110.784 42.4338 110.456 42.6932 110.08 42.8741C109.551 43.1301 108.961 43.2552 108.367 43.2375C107.859 43.2448 107.354 43.1492 106.889 42.957C106.423 42.7649 106.006 42.4806 105.666 42.1235ZM106.592 37.3596C106.097 37.9181 105.826 38.6227 105.826 39.3505C105.826 40.0783 106.097 40.7829 106.592 41.3414C106.841 41.5861 107.14 41.7808 107.471 41.9138C107.802 42.0467 108.158 42.1153 108.518 42.1153C108.878 42.1153 109.234 42.0467 109.565 41.9138C109.896 41.7808 110.195 41.5861 110.444 41.3414C110.942 40.7843 111.215 40.0791 111.215 39.3505C111.215 38.6219 110.942 37.9167 110.444 37.3596C110.195 37.1139 109.896 36.9184 109.565 36.7847C109.234 36.6511 108.878 36.5822 108.518 36.5822C108.158 36.5822 107.801 36.6511 107.47 36.7847C107.139 36.9184 106.84 37.1139 106.592 37.3596Z" fill="black"/>
<path d="M115.836 42.1311C115.097 41.3734 114.688 40.3844 114.688 39.3584C114.688 38.3323 115.097 37.3433 115.836 36.5856C116.231 36.2175 116.702 35.9294 117.221 35.7394C117.74 35.5493 118.295 35.4614 118.852 35.4809C119.409 35.5005 119.956 35.6272 120.458 35.8532C120.96 36.0792 121.407 36.3995 121.772 36.7944C122.1 37.1778 122.345 37.6182 122.491 38.0902H121.23C121.103 37.8071 120.921 37.5492 120.691 37.33C120.429 37.08 120.113 36.8842 119.765 36.7553C119.417 36.6264 119.043 36.5673 118.669 36.5817C118.305 36.5745 117.944 36.6412 117.61 36.7772C117.276 36.9131 116.978 37.1152 116.735 37.3694C116.214 37.9064 115.936 38.6129 115.962 39.3387C115.939 40.0683 116.226 40.7765 116.761 41.3079C117.002 41.5578 117.296 41.7571 117.625 41.8928C117.954 42.0286 118.31 42.0977 118.669 42.0957C119.063 42.1138 119.455 42.0497 119.819 41.908C120.182 41.7663 120.508 41.5506 120.771 41.2764C121.002 41.0474 121.181 40.7767 121.297 40.4809H122.558C122.421 40.9859 122.171 41.4582 121.827 41.8672C121.449 42.3083 120.967 42.6615 120.419 42.8993C119.872 43.1371 119.273 43.2529 118.669 43.2378C118.141 43.2491 117.615 43.1564 117.127 42.9658C116.639 42.7752 116.199 42.4908 115.836 42.1311Z" fill="black"/>
<path d="M122.559 36.642V35.4783H129.305V36.642H126.559V43.2391H125.317V36.642H122.559Z" fill="black"/>
<path d="M131.554 42.1312C130.831 41.377 130.43 40.3868 130.43 39.3587C130.43 38.3306 130.831 37.3404 131.554 36.5861C131.918 36.2244 132.355 35.9393 132.838 35.7489C133.322 35.5584 133.84 35.4667 134.362 35.4794C134.884 35.4681 135.402 35.5592 135.886 35.7474C136.37 35.9355 136.81 36.2167 137.178 36.574C137.546 36.9312 137.835 37.357 138.028 37.8256C138.221 38.2941 138.313 38.7956 138.299 39.2996V39.7328H131.668C131.731 40.3897 132.045 41.0005 132.549 41.4459C133.041 41.8901 133.693 42.1305 134.366 42.1155C135.083 42.1324 135.78 41.8941 136.326 41.4459C136.564 41.2607 136.763 41.0335 136.913 40.7764H138.136C137.85 41.5153 137.333 42.1495 136.657 42.5908C135.98 43.032 135.178 43.2582 134.362 43.2379C133.84 43.2509 133.322 43.1592 132.838 42.9688C132.355 42.7783 131.918 42.4931 131.554 42.1312ZM131.693 38.6891H136.991C136.905 38.1126 136.607 37.5853 136.151 37.2044C135.659 36.794 135.024 36.5775 134.374 36.5979C133.721 36.5802 133.084 36.7962 132.585 37.2044C132.113 37.5795 131.796 38.1066 131.693 38.6891Z" fill="black"/>
<path d="M140.547 46.5652V35.6514H141.8V36.9044L141.958 36.6663C142.214 36.3293 142.544 36.0562 142.923 35.8686C143.45 35.5944 144.038 35.4607 144.631 35.4801C145.137 35.4738 145.639 35.5756 146.103 35.7787C146.567 35.9818 146.982 36.2816 147.32 36.658C148.028 37.4677 148.418 38.5065 148.418 39.5817C148.418 40.6569 148.028 41.6957 147.32 42.5054C146.766 43.0893 146.04 43.4811 145.248 43.6238C144.455 43.7666 143.638 43.6528 142.915 43.299C142.531 43.1149 142.201 42.8342 141.958 42.4845L141.8 42.2632V46.5652H140.547ZM142.581 37.5017C142.084 38.0907 141.812 38.8364 141.812 39.6068C141.812 40.3772 142.084 41.1228 142.581 41.7118C142.829 41.9706 143.128 42.1764 143.458 42.317C143.788 42.4576 144.143 42.5301 144.502 42.5301C144.86 42.5301 145.216 42.4576 145.546 42.317C145.876 42.1764 146.174 41.9706 146.423 41.7118C146.919 41.1228 147.191 40.3772 147.191 39.6068C147.191 38.8364 146.919 38.0907 146.423 37.5017C146.175 37.2419 145.877 37.0351 145.546 36.8938C145.216 36.7525 144.861 36.6797 144.502 36.6797C144.143 36.6797 143.787 36.7525 143.457 36.8938C143.127 37.0351 142.829 37.2419 142.581 37.5017Z" fill="black"/>
<path d="M78.0779 0.0161133H59.418V48.2547H78.0779V0.0161133Z" fill="black"/>
<path d="M48.367 0.0161133H29.707V43.9164H48.367V0.0161133Z" fill="black"/>
<path d="M0 49.0299V30.1424C7.88253 30.1324 15.4389 26.9523 21.0092 21.3006C26.5795 15.6489 29.7083 7.98774 29.7082 0L48.3682 0C48.3584 12.9977 43.2598 25.4604 34.1916 34.6526C25.1234 43.8449 12.8265 49.0156 0 49.0299Z" fill="url(#paint0_linear_1081_1544)"/>
<path d="M29.707 49.0299V30.1424C37.5905 30.1339 45.1482 26.9544 50.7196 21.3025C56.2911 15.6506 59.4206 7.98867 59.4206 0L78.0805 0C78.0693 12.9982 72.9695 25.4608 63.9005 34.653C54.8314 43.8451 42.534 49.0156 29.707 49.0299Z" fill="url(#paint1_linear_1081_1544)"/>
<defs>
<linearGradient id="paint0_linear_1081_1544" x1="5.83223" y1="44.0402" x2="47.8616" y2="1.71437" gradientUnits="userSpaceOnUse">
<stop stop-color="#00EF12"/>
<stop offset="1" stop-color="#00FFE9"/>
</linearGradient>
<linearGradient id="paint1_linear_1081_1544" x1="1940.94" y1="5382.5" x2="5769.4" y2="1527.88" gradientUnits="userSpaceOnUse">
<stop stop-color="#00EF12"/>
<stop offset="1" stop-color="#00FFE9"/>
</linearGradient>
</defs>
</svg>
