<svg width="20" height="20" viewBox="0 0 20 20" fill="none" xmlns="http://www.w3.org/2000/svg">
<g clip-path="url(#clip0_1081_1599)">
<g opacity="0.4">
<path fill-rule="evenodd" clip-rule="evenodd" d="M9 0C4.02944 0 0 4.02944 0 9C0 13.9706 4.02944 18 9 18C11.1024 18 13.0364 17.2791 14.5683 16.0711L18.4784 20L20 18.4681L16.0717 14.5676C17.2794 13.0358 18 11.102 18 9C18 4.02944 13.9706 0 9 0ZM2 9C2 5.13401 5.13401 2 9 2C12.866 2 16 5.13401 16 9C16 12.866 12.866 16 9 16C5.13401 16 2 12.866 2 9Z" fill="black"/>
</g>
</g>
<defs>
<clipPath id="clip0_1081_1599">
<rect width="20" height="20" fill="white"/>
</clipPath>
</defs>
</svg>
